<?xml version="1.0" standalone="no"?>
<!DOCTYPE svg PUBLIC "-//W3C//DTD SVG 20010904//EN"
 "http://www.w3.org/TR/2001/REC-SVG-20010904/DTD/svg10.dtd">
<svg version="1.0" xmlns="http://www.w3.org/2000/svg"
 width="288.000000pt" height="288.000000pt" viewBox="0 0 288.000000 288.000000"
 preserveAspectRatio="xMidYMid meet">
<metadata>
Created by potrace 1.10, written by Peter Selinger 2001-2011
</metadata>
<g transform="translate(0.000000,288.000000) scale(0.100000,-0.100000)"
fill="#000000" stroke="none">
<path d="M535 2708 l-7 -172 -35 -42 -34 -43 40 -21 41 -20 -5 -58 c-3 -31 -8
-78 -11 -104 -3 -28 -1 -48 5 -48 5 0 11 17 13 38 2 20 5 1 6 -44 0 -44 4 -88
8 -98 4 -9 -1 -35 -11 -56 -18 -41 -49 -60 -67 -42 -13 13 -20 115 -8 107 5
-3 12 0 16 6 5 8 3 9 -6 4 -10 -6 -12 -4 -7 9 4 10 7 22 7 27 0 5 8 9 18 9 14
0 15 2 2 10 -10 6 -11 10 -2 10 6 0 12 5 12 11 0 18 -21 -2 -51 -49 -34 -53
-38 -107 -12 -155 10 -18 25 -66 34 -107 16 -74 16 -75 -5 -90 -11 -8 -36 -29
-55 -46 l-34 -31 36 -48 c21 -26 37 -51 37 -54 0 -4 -103 -49 -230 -101 -178
-73 -230 -98 -230 -112 0 -21 -23 -29 285 98 l200 82 22 -21 c22 -22 22 -26
25 -410 l3 -388 -40 -10 c-22 -5 -62 -16 -89 -24 -27 -8 -53 -12 -58 -9 -4 3
-20 -2 -35 -9 -15 -8 -75 -26 -133 -41 -58 -15 -122 -32 -144 -37 -21 -6 -36
-13 -33 -15 3 -3 67 11 144 32 76 20 148 37 160 37 14 -1 21 4 18 11 -3 6 0 4
6 -5 12 -16 14 -15 28 1 9 10 46 25 82 34 36 8 73 18 82 22 14 5 16 -11 16
-149 l1 -154 -68 -17 c-55 -13 -100 -15 -247 -11 -99 3 -190 8 -202 11 -16 3
-23 0 -23 -10 0 -11 20 -16 83 -20 158 -11 447 -14 453 -5 3 5 -16 9 -42 9
-54 0 -49 14 8 24 34 6 37 5 43 -24 4 -17 10 -28 14 -26 4 3 6 -36 6 -85 -1
-49 2 -89 6 -89 4 0 11 -9 14 -20 4 -14 15 -20 36 -20 16 0 29 4 29 9 0 4 -12
8 -27 7 -20 -1 -29 5 -31 18 -3 11 0 16 7 12 14 -9 73 32 66 45 -9 14 9 11 31
-6 18 -14 18 -14 0 -15 -16 0 -16 -2 5 -19 21 -17 25 -17 32 -5 6 10 2 21 -13
34 -38 33 -58 34 -95 6 -18 -14 -36 -26 -39 -26 -3 0 -6 35 -6 78 l0 77 68 -1
c37 -1 105 -2 151 -3 l83 -1 -6 -88 c-13 -169 -15 -282 -5 -282 5 0 9 12 10
28 0 15 2 34 3 42 2 8 7 86 11 172 l7 158 -170 -3 c-111 -1 -168 1 -164 8 3 5
5 87 3 182 l-3 172 44 11 c151 40 406 111 423 118 28 12 45 -25 39 -81 l-6
-43 41 4 c23 2 43 8 46 12 3 5 -3 6 -14 3 -15 -4 -18 0 -15 22 1 15 4 28 6 29
2 1 14 8 28 14 22 11 20 12 -23 7 -35 -3 -46 -2 -41 7 4 7 3 8 -4 4 -7 -4 -12
-1 -12 9 0 11 5 15 14 12 8 -3 17 0 20 8 2 7 16 12 29 11 14 -2 35 3 48 10 31
17 11 17 -68 0 -56 -11 -65 -11 -78 4 -17 18 -11 32 11 23 8 -3 11 -10 7 -16
-3 -6 -1 -7 6 -3 6 4 9 11 6 16 -12 19 31 52 75 56 45 4 100 -11 100 -27 0
-11 23 -7 32 6 5 6 8 6 8 -1 0 -7 11 -9 25 -6 40 7 29 24 -15 20 -22 -1 -40 0
-40 5 -1 29 1 37 10 37 6 0 10 -7 10 -15 0 -21 28 -19 33 3 4 16 5 16 6 0 1
-21 17 -24 24 -5 3 6 6 1 6 -14 1 -14 6 -30 12 -36 8 -8 7 -13 -2 -18 -8 -5
-10 -4 -5 4 6 8 -4 10 -36 5 -51 -8 -62 -14 -25 -14 14 0 28 -4 32 -9 3 -5 20
-7 38 -4 23 3 37 0 46 -11 21 -25 11 -27 -54 -11 -33 8 -62 14 -65 15 -3 0 -7
-11 -8 -25 -1 -18 3 -25 16 -25 14 0 15 2 2 10 -12 7 -12 12 -2 22 9 9 12 9
12 0 0 -7 9 -12 19 -12 11 0 22 -4 25 -8 3 -5 18 -8 33 -6 15 1 33 2 40 3 7 1
10 8 6 17 -5 14 -3 15 15 5 22 -12 32 1 12 14 -15 9 -12 25 5 25 10 0 15 -10
15 -26 0 -51 26 -7 29 48 1 29 7 55 13 59 6 4 48 17 95 29 46 12 82 24 80 27
-6 5 -163 -35 -192 -50 -16 -8 -18 -7 -7 4 9 10 12 81 12 286 0 253 1 273 18
273 9 0 26 8 37 16 19 15 19 15 -10 8 -16 -4 -42 -7 -57 -7 -16 0 -28 -4 -28
-9 0 -5 -5 -6 -11 -3 -14 9 -4 18 24 21 12 1 24 3 27 3 3 1 -2 6 -10 11 -13 8
-12 10 3 10 9 0 17 -4 17 -8 0 -10 68 -4 95 8 28 13 138 40 166 41 l24 1 -25
8 -25 8 25 1 c14 0 31 -3 39 -8 10 -6 6 -11 -15 -19 -27 -10 -26 -10 19 -11
34 -1 46 -4 41 -13 -5 -7 -3 -8 6 -3 7 4 16 2 21 -6 7 -11 9 -10 9 5 0 12 5
16 16 12 9 -3 18 -6 20 -6 3 0 3 -3 0 -8 -2 -4 14 -7 36 -7 22 0 42 -4 45 -9
3 -5 1 -6 -5 -2 -18 11 -14 0 5 -15 11 -10 14 -10 9 -1 -4 7 -1 12 9 12 9 0
13 -5 9 -11 -4 -7 -1 -10 7 -7 21 8 46 -9 63 -42 9 -19 10 -28 3 -23 -8 4 -8
2 1 -9 10 -13 10 -17 -3 -22 -9 -3 -13 -2 -10 3 3 5 0 13 -7 17 -7 4 -10 4 -6
-1 4 -4 2 -15 -5 -23 -9 -13 -9 -14 1 -8 6 4 12 4 12 -1 0 -4 -14 -16 -30 -25
-28 -16 -30 -16 -40 2 -14 26 -12 34 4 21 10 -9 16 -9 21 -1 4 6 4 14 1 17 -3
4 -6 0 -6 -7 0 -9 -6 -8 -20 5 -11 10 -20 14 -20 9 0 -5 -4 -4 -8 1 -6 9 -42
29 -77 43 -5 3 9 -9 32 -26 23 -17 46 -39 51 -49 5 -10 12 -82 15 -160 3 -78
9 -148 13 -155 15 -23 14 -49 -1 -54 -8 -4 -15 -12 -15 -20 0 -16 -16 -19 -25
-4 -4 7 -12 7 -25 0 -10 -5 -22 -10 -25 -10 -11 0 19 24 48 39 15 8 27 23 27
32 0 22 -43 53 -62 46 -9 -4 -8 -6 3 -6 9 -1 24 -9 33 -20 16 -17 16 -20 1
-35 -9 -9 -19 -16 -23 -17 -4 0 -16 -2 -27 -5 -45 -10 -71 -10 -89 -1 -13 6
-16 6 -12 -2 5 -7 -6 -11 -31 -11 -29 0 -34 3 -23 10 11 8 8 9 -13 4 -16 -4
-33 -1 -42 6 -8 6 -18 9 -23 6 -5 -3 -18 4 -28 15 -18 20 -17 21 9 42 20 15
29 34 32 62 l5 40 -12 -40 c-12 -42 -35 -67 -54 -60 -16 5 -6 -35 15 -59 10
-13 11 -17 2 -11 -8 4 -17 2 -23 -6 -8 -11 -9 -10 -4 4 3 9 1 17 -4 17 -6 0
-10 -4 -10 -10 0 -20 -28 -9 -46 17 -15 24 -18 53 -20 183 -1 93 2 160 8 168
7 8 7 12 -1 12 -7 0 -9 5 -6 10 3 6 1 10 -4 10 -16 0 -13 26 3 39 8 6 16 20
19 30 8 31 -30 13 -43 -20 -10 -22 -10 -36 -1 -57 8 -19 11 -85 9 -196 l-3
-167 34 -31 c32 -28 38 -30 90 -25 31 3 51 3 44 -1 -6 -4 32 -7 85 -6 59 0
110 -5 129 -13 18 -7 43 -13 57 -13 32 0 66 43 66 85 l0 32 101 28 c65 18 104
24 110 18 6 -6 2 -9 -12 -9 -19 1 -25 -10 -45 -84 -13 -47 -23 -95 -24 -107 0
-14 -5 -21 -13 -17 -8 3 -26 0 -41 -6 -21 -7 -34 -6 -56 5 -33 17 -50 19 -50
5 0 -12 42 -51 49 -45 2 3 -4 12 -15 20 -10 8 -14 15 -7 15 23 0 61 -22 72
-44 9 -15 10 -16 6 -2 -4 14 -1 17 11 12 8 -3 18 -6 20 -6 2 0 4 -7 4 -16 0
-8 5 -12 10 -9 6 4 7 11 4 17 -4 6 -2 8 3 5 7 -5 6 -30 -3 -79 -8 -40 -14 -78
-14 -85 0 -7 -7 -10 -15 -7 -9 4 -15 0 -15 -10 0 -9 5 -16 11 -16 6 0 8 -9 4
-20 -4 -11 -8 -33 -11 -48 -2 -15 -12 -61 -23 -102 l-19 -75 2 61 c0 34 4 60
9 57 4 -2 7 1 7 6 0 6 -4 11 -10 11 -5 0 -10 6 -10 14 0 8 -12 17 -26 20 -18
5 -24 12 -20 22 3 9 2 12 -4 9 -6 -3 -22 2 -38 13 -32 22 -95 46 -87 32 4 -6
11 -10 17 -10 5 0 26 -7 45 -16 61 -29 65 -44 64 -223 -1 -99 2 -162 9 -166 6
-4 9 8 8 32 -2 62 1 93 11 93 5 0 8 -18 6 -40 -1 -22 1 -42 5 -45 9 -6 0 -65
-11 -65 -5 0 -9 -7 -9 -15 0 -15 -28 -34 -61 -40 -30 -6 -25 31 6 39 29 7 33
37 9 57 -13 10 -17 10 -24 -1 -5 -8 -5 -19 0 -25 6 -7 2 -17 -11 -28 -11 -10
-17 -22 -14 -27 3 -6 -1 -7 -9 -4 -9 3 -13 10 -10 15 3 5 -4 9 -16 9 -12 0
-19 -4 -16 -8 3 -5 -8 -6 -24 -4 -17 2 -28 7 -26 11 6 8 -138 6 -153 -3 -6 -4
-11 -2 -11 3 0 6 -4 11 -10 11 -5 0 -10 -8 -10 -17 0 -15 -2 -16 -10 -3 -7 11
-3 18 13 28 13 8 15 11 5 8 -10 -3 -19 -4 -20 -3 -1 1 -5 83 -8 182 l-7 180 0
-186 c0 -102 -3 -191 -6 -197 -4 -5 -1 -13 5 -16 7 -3 2 -3 -12 0 -34 9 -61
39 -53 60 3 10 2 15 -3 12 -5 -4 -9 14 -10 38 0 25 4 44 10 44 7 0 8 3 1 8
-10 7 -15 142 -5 142 7 0 6 104 -1 110 -4 3 -10 19 -13 37 -7 30 -5 33 36 51
66 30 117 42 124 30 5 -7 2 -8 -7 -3 -8 5 -10 4 -6 0 4 -5 14 -10 21 -11 7 -1
23 -5 34 -8 11 -4 23 -3 26 3 3 5 37 7 75 5 64 -3 69 -1 75 19 4 15 8 18 14
10 4 -7 18 -11 30 -8 12 2 22 0 22 -6 0 -5 3 -8 8 -8 4 1 9 1 12 -1 3 -1 18
-3 34 -5 36 -5 45 -13 26 -25 -11 -7 -10 -9 7 -7 34 2 37 26 5 40 -15 6 -30
17 -34 23 -4 6 -35 10 -73 10 -36 -1 -65 2 -65 7 0 4 -11 7 -23 7 -16 0 -28 9
-35 26 -23 50 -60 55 -222 28 -80 -13 -149 -24 -154 -24 -6 0 -2 -6 8 -13 19
-14 74 -15 95 -3 13 9 28 0 18 -10 -3 -3 -20 -7 -37 -9 -17 -1 -33 -5 -36 -8
-3 -3 -17 -3 -30 -1 -13 2 -24 0 -24 -5 0 -6 -12 -10 -27 -9 -16 1 -37 -2 -47
-7 -15 -6 -17 -5 -11 5 5 9 4 11 -4 6 -6 -4 -10 -10 -8 -14 5 -9 -30 -42 -36
-35 -3 3 -3 11 -1 18 4 10 -1 12 -15 8 -11 -3 -19 -9 -16 -13 8 -13 -86 -23
-98 -11 -14 14 -67 15 -67 1 0 -5 13 -7 30 -5 16 2 32 -1 35 -6 7 -10 5 -11
-45 -14 -61 -3 -125 -17 -132 -28 -4 -6 -2 -17 4 -25 8 -8 9 -55 5 -145 -17
-335 -20 -572 -8 -561 7 6 15 42 19 80 l7 69 53 3 52 4 0 -56 c0 -30 5 -58 11
-61 7 -5 9 7 5 39 -2 25 0 48 5 51 5 4 9 -19 9 -52 1 -46 3 -54 11 -39 7 10
13 106 17 227 l5 209 41 0 c23 0 71 3 109 7 l67 6 -2 -212 -3 -212 -100 -4
c-86 -5 -102 -8 -117 -26 -10 -12 -24 -19 -32 -16 -10 4 -13 1 -10 -7 5 -13
34 -18 34 -5 0 4 30 10 68 13 162 15 154 15 159 -5 12 -46 23 -11 25 79 0 53
2 102 3 107 2 6 3 105 4 221 l1 211 33 11 32 11 -32 -5 -33 -6 0 74 c0 40 4
80 10 88 6 9 56 22 142 37 128 21 195 22 182 2 -3 -5 -14 -7 -23 -4 -26 8 -53
-5 -47 -22 4 -8 1 -11 -5 -8 -6 4 -8 14 -5 22 5 12 0 13 -27 8 -84 -16 -139
-39 -163 -68 -24 -28 -24 -31 -8 -54 13 -21 15 -52 12 -202 -3 -158 -1 -180
15 -205 18 -27 80 -61 95 -52 4 2 46 7 92 10 83 6 220 -10 220 -26 0 -3 -5
-19 -10 -34 -9 -21 -7 -29 7 -41 17 -13 17 -13 -1 -11 -15 3 -22 -11 -41 -79
l-23 -83 24 0 c25 0 30 12 72 175 12 47 26 79 45 97 15 16 29 28 31 28 1 0 4
-66 5 -147 1 -81 3 -149 6 -151 2 -2 9 -1 15 3 9 6 9 10 -1 16 -10 6 -11 9 -1
9 13 0 17 32 5 44 -10 10 -11 46 -1 46 4 0 8 -5 8 -11 0 -5 5 -7 10 -4 6 3 10
-1 10 -10 0 -10 -5 -13 -12 -9 -8 5 -8 3 -2 -7 5 -8 9 -27 10 -43 0 -17 6 -32
12 -34 9 -3 12 27 12 111 0 100 -3 117 -20 137 -11 13 -20 19 -20 14 0 -6 5
-15 10 -20 7 -7 6 -11 -5 -11 -8 0 -15 3 -16 6 -4 33 -9 61 -15 89 -4 20 -2
38 6 48 10 11 10 18 2 26 -17 17 -15 79 3 104 8 12 11 25 7 29 -4 3 2 13 12
21 11 8 15 14 10 14 -7 0 -4 29 6 78 13 57 21 76 32 74 17 -3 125 19 398 82
292 67 300 69 300 77 0 5 -6 6 -12 4 -23 -7 -266 -64 -476 -111 -166 -37 -206
-43 -213 -32 -21 33 -6 51 56 66 306 73 629 153 636 158 6 4 6 11 -1 19 -7 8
-9 18 -7 22 3 5 2 42 -3 83 -7 63 -6 76 8 88 15 12 15 13 1 9 -14 -5 -17 8
-23 81 -4 48 -10 98 -13 111 -3 13 -2 22 3 19 5 -3 18 4 29 15 11 11 14 17 7
13 -7 -4 -19 -2 -27 4 -18 15 -17 21 -19 -120 -1 -63 2 -101 5 -85 7 27 7 26
6 -9 l-2 -40 -293 -74 c-162 -40 -295 -72 -297 -70 -8 8 51 218 61 218 6 0
118 32 248 70 131 39 241 68 247 65 5 -4 9 3 9 14 0 12 -5 21 -11 21 -5 0 -8
-4 -5 -8 5 -9 -483 -156 -490 -149 -2 2 44 194 102 426 87 346 104 425 93 432
-25 16 -33 3 -56 -92 -27 -114 -27 -123 -7 -115 8 3 12 2 9 -4 -3 -6 -12 -10
-20 -10 -8 0 -19 -17 -24 -37 -37 -144 -101 -400 -101 -407 0 -4 7 -6 15 -2 8
3 15 1 15 -4 0 -6 -8 -10 -19 -10 -15 0 -23 -17 -43 -97 l-24 -98 -79 -27
c-44 -14 -86 -27 -92 -27 -10 -1 -13 31 -13 127 l1 127 32 20 c97 62 51 151
-98 190 -33 8 -74 15 -93 15 -19 0 -45 9 -59 20 -34 26 -54 25 -207 -10 -72
-17 -131 -30 -133 -30 -1 0 0 6 3 14 5 14 11 73 13 136 1 23 8 39 20 47 17 11
35 3 133 -52 62 -36 116 -65 121 -65 4 0 7 7 7 15 0 8 -9 15 -21 15 -11 0 -18
4 -14 9 3 6 -10 13 -30 17 -19 3 -33 10 -30 14 3 4 -2 11 -11 14 -10 4 -13 2
-9 -7 4 -6 0 -4 -8 6 -8 10 -25 20 -37 22 -13 2 -24 6 -26 8 -2 2 35 45 82 95
78 83 114 109 114 82 0 -5 6 -10 14 -10 8 0 16 -5 18 -10 2 -6 14 -12 27 -15
27 -5 51 -23 51 -38 0 -5 -10 -19 -22 -30 -18 -16 -19 -19 -5 -14 10 4 23 7
28 7 5 0 8 3 8 8 -3 18 2 32 12 32 5 0 8 -4 5 -9 -7 -10 19 -23 28 -14 14 14
0 25 -114 85 -66 35 -120 65 -120 68 1 3 161 68 358 145 196 76 445 174 552
215 107 42 204 80 215 84 15 5 16 9 6 15 -10 7 -11 9 -1 13 7 2 11 9 9 15 -2
7 -224 -77 -564 -213 -308 -123 -561 -224 -562 -224 -1 0 6 15 16 33 29 48 36
110 16 127 -13 11 -21 11 -35 2 -24 -15 -108 0 -162 28 -38 20 -38 20 -38 0 0
-17 -3 -18 -25 -8 -31 14 -33 32 -2 23 15 -4 18 -4 8 3 -14 10 65 76 327 276
56 43 102 81 101 85 0 5 -158 146 -164 146 -4 0 -307 -233 -407 -312 -74 -59
-78 -61 -78 -37 0 19 -8 28 -37 40 -66 28 -133 -2 -133 -59 0 -28 1 -29 18
-15 16 13 67 38 78 38 3 0 2 -5 -2 -11 -4 -7 0 -9 14 -5 13 4 26 0 38 -11 17
-17 17 -18 -4 -21 -11 -2 -29 1 -39 6 -27 14 -103 -21 -103 -48 0 -27 23 -26
35 3 9 19 17 22 65 22 38 -1 59 4 67 15 9 10 12 11 13 3 0 -7 6 -12 13 -10 7
1 11 -7 9 -23 -1 -19 0 -21 7 -11 8 12 12 13 25 2 13 -11 14 -17 4 -30 -10
-13 -10 -14 2 -3 17 14 34 16 25 2 -3 -6 1 -7 9 -4 16 6 19 -1 18 -41 -1 -18
0 -18 5 -2 3 11 11 16 20 13 8 -3 17 -6 19 -6 3 0 3 -4 -1 -9 -3 -5 4 -12 15
-16 21 -7 26 -24 13 -41 -5 -5 -1 -3 7 6 17 17 47 23 70 13 8 -3 20 -7 25 -8
26 -4 71 -19 83 -28 8 -6 12 -6 12 2 0 7 5 9 10 6 6 -4 8 -11 5 -16 -3 -5 1
-6 9 -3 9 3 14 11 13 17 -1 6 8 13 21 15 18 3 22 -1 22 -22 0 -14 -4 -26 -9
-26 -5 0 -7 -9 -4 -20 3 -12 0 -20 -7 -20 -7 0 -9 -8 -5 -20 4 -14 2 -20 -7
-18 -7 2 -15 6 -18 9 -3 4 -11 0 -19 -8 -11 -12 -10 -14 4 -11 10 2 20 -1 21
-7 2 -5 -7 -11 -21 -11 -14 -1 -25 3 -25 9 0 6 -3 7 -7 4 -3 -4 -17 0 -30 8
-13 9 -23 13 -23 10 0 -4 -7 1 -16 9 -8 9 -20 14 -25 11 -5 -4 -9 -1 -9 4 0 6
-7 11 -16 11 -8 0 -22 7 -31 15 -8 8 -20 12 -26 8 -7 -4 -8 0 -4 11 6 14 3 16
-14 11 -16 -5 -19 -4 -14 5 5 9 4 11 -3 6 -7 -4 -12 -2 -12 4 0 6 -4 9 -9 6
-19 -12 -17 19 3 37 20 17 20 18 1 8 -11 -5 -29 -17 -40 -26 -11 -9 -14 -14
-7 -10 6 3 12 1 12 -5 0 -5 16 -18 35 -27 32 -15 40 -41 8 -29 -10 4 -13 2
-10 -7 3 -7 -10 -23 -29 -36 -19 -13 -34 -27 -34 -31 0 -5 -18 -28 -40 -51
-39 -42 -40 -42 -60 -24 -11 10 -17 22 -13 28 4 6 1 7 -6 2 -9 -5 -6 -14 11
-34 13 -14 23 -27 24 -29 1 -1 42 40 93 91 l92 94 108 -55 c78 -40 114 -53
127 -47 42 18 58 15 26 -5 -28 -17 -32 -23 -22 -35 7 -8 19 -15 27 -15 12 0
11 -7 -6 -32 -11 -18 -27 -32 -36 -30 -10 2 -13 -2 -8 -14 5 -14 3 -16 -11
-11 -11 4 -15 3 -10 -4 4 -6 -11 -26 -32 -45 -20 -19 -33 -34 -28 -34 5 0 2
-5 -8 -10 -11 -7 -30 -4 -62 10 -25 10 -46 22 -46 25 0 4 6 3 13 -1 8 -5 8 -2
-2 9 -12 15 -11 17 3 17 10 0 15 4 11 9 -3 5 7 19 22 30 16 11 37 29 47 38 11
10 15 12 11 4 -5 -9 -4 -12 3 -7 6 4 8 14 5 23 -5 12 -3 14 7 8 8 -5 11 -4 7
2 -8 12 27 46 36 36 4 -3 7 1 7 10 0 9 -2 17 -5 17 -3 0 -48 -44 -100 -97 -60
-63 -95 -92 -95 -80 0 9 -8 17 -17 17 -9 0 -24 7 -34 16 -16 15 -21 15 -49 0
-20 -9 -28 -11 -22 -3 15 18 -19 59 -52 63 -33 3 -26 -9 14 -26 37 -15 38 -26
5 -34 -16 -4 -25 -13 -25 -26 0 -24 -2 -24 55 0 42 18 48 19 70 4 13 -9 30
-12 36 -8 7 4 9 3 5 -4 -3 -6 2 -13 13 -17 18 -6 19 -14 16 -127 -3 -67 -9
-126 -14 -131 -5 -5 -45 -4 -100 3 -78 11 -91 16 -91 31 0 11 -5 19 -11 19 -6
0 -9 -6 -6 -12 3 -9 -7 -13 -36 -12 -23 1 -43 6 -45 13 -2 7 3 8 14 4 16 -6
17 -5 4 9 -19 20 -32 13 -28 -15 2 -17 -5 -23 -41 -32 -47 -11 -58 -24 -46
-53 4 -9 7 -32 6 -50 -2 -30 0 -33 21 -30 24 3 34 28 22 56 -4 9 -6 24 -5 32
2 11 -2 9 -12 -4 -9 -12 -16 -15 -21 -8 -3 6 -2 13 4 17 6 4 8 11 5 16 -3 5 0
6 8 3 8 -3 18 -1 22 5 9 16 35 13 35 -4 0 -8 9 -15 20 -15 11 0 20 4 20 10 0
5 -7 7 -15 4 -8 -4 -15 -1 -15 4 0 17 18 24 41 17 17 -6 19 -9 8 -16 -9 -6
-10 -9 -2 -9 21 0 24 18 6 30 -15 9 -14 10 7 4 14 -3 35 -12 47 -20 12 -8 30
-13 40 -12 10 0 32 0 48 -1 26 -2 27 -4 10 -10 -11 -5 -23 -7 -26 -5 -4 2 -10
-3 -13 -11 -4 -12 -2 -13 12 -6 14 7 21 5 31 -10 15 -26 -3 -52 -30 -44 -9 3
-20 1 -24 -5 -4 -6 -13 -9 -20 -6 -8 3 -16 0 -18 -7 -3 -9 -8 -8 -21 2 -9 8
-16 10 -15 5 1 -5 1 -11 -1 -14 -9 -26 -6 -62 6 -67 7 -3 11 -10 7 -16 -4 -6
0 -8 10 -4 10 3 17 2 17 -2 0 -9 -30 -25 -42 -23 -5 1 -8 -5 -8 -15 0 -15 2
-15 19 1 11 10 25 15 30 11 7 -4 11 4 11 19 0 14 5 26 10 26 6 0 10 -6 10 -12
0 -9 4 -8 10 2 8 12 10 10 10 -8 0 -13 -4 -20 -10 -17 -5 3 -10 -3 -10 -14 0
-14 -5 -19 -15 -15 -8 4 -15 1 -15 -6 0 -6 -6 -10 -12 -7 -7 2 -21 0 -31 -5
-13 -6 -15 -13 -8 -26 9 -17 -10 -58 -22 -46 -3 3 -4 -16 -3 -43 1 -32 -4 -52
-14 -60 -20 -16 -47 -16 -53 0 -4 9 -6 9 -6 0 -1 -7 -11 -13 -23 -12 -13 0
-18 3 -12 5 7 3 10 26 9 57 -1 29 1 89 4 135 3 45 2 82 -2 82 -5 0 -5 5 -2 10
9 15 -2 12 -19 -6 -13 -12 -16 -13 -16 -1 0 15 41 37 70 37 10 0 22 5 25 10 3
6 11 10 16 10 6 0 8 -4 5 -9 -4 -5 0 -12 6 -14 11 -5 -14 -11 -33 -9 -3 1 -6
-5 -6 -12 0 -11 5 -11 26 0 14 8 26 17 25 21 -1 5 6 13 15 20 13 10 10 12 -21
13 -21 0 -38 5 -38 11 0 7 14 10 35 7 42 -5 47 7 7 15 -32 7 -40 37 -10 37 11
0 17 4 14 9 -3 5 -15 7 -25 4 -20 -5 -39 -72 -26 -93 3 -5 0 -8 -7 -5 -7 2
-28 1 -47 -3 l-34 -7 -3 -165 c-4 -206 -12 -297 -30 -314 -7 -8 -11 -16 -8
-19 8 -8 54 14 54 26 0 5 -8 3 -17 -4 -16 -13 -17 -12 -5 3 8 10 22 20 33 23
10 4 19 14 19 23 0 15 -2 15 -10 2 -7 -11 -10 -3 -11 30 l-2 45 -7 -50 -7 -50
-1 51 c-2 59 4 64 74 64 67 0 81 -11 78 -62 -2 -41 -3 -43 -30 -41 -28 2 -28
2 -4 -5 17 -5 26 -16 28 -34 3 -27 3 -27 -51 -21 -59 6 -122 -9 -131 -32 -3
-8 -13 -15 -23 -15 -15 0 -15 2 3 15 19 15 19 15 -1 31 -19 14 -20 13 -23 -27
-2 -27 2 -47 13 -59 15 -16 7 -20 -137 -60 -84 -23 -191 -52 -238 -65 -46 -13
-86 -22 -89 -20 -2 3 -6 181 -9 398 l-5 393 49 40 c43 36 195 104 491 221 6 3
11 13 10 22 -1 16 -27 8 -177 -54 -96 -40 -174 -77 -173 -82 1 -6 -10 -16 -25
-22 l-27 -13 25 27 c14 15 112 99 219 186 137 112 197 155 203 146 5 -8 8 -6
8 7 0 18 5 19 55 1 11 -3 8 1 -7 10 -27 15 -37 35 -19 35 5 0 31 20 59 45 47
43 71 57 57 35 -3 -5 -1 -10 5 -10 7 0 10 6 7 14 -8 21 16 39 33 23 10 -9 11
-9 5 1 -9 17 22 52 41 45 8 -3 14 -3 14 0 0 19 -35 11 -67 -15 -44 -35 -78
-55 -69 -40 3 5 -1 15 -9 22 -12 10 -15 10 -15 0 0 -8 -8 -23 -17 -34 -12 -14
-13 -17 -3 -9 9 7 21 9 27 5 12 -8 -113 -117 -150 -131 -12 -5 -30 -18 -41
-30 -10 -11 -22 -18 -27 -16 -4 3 -11 0 -15 -6 -5 -8 -3 -9 6 -4 9 5 11 4 6
-3 -5 -8 -21 -1 -50 21 -24 17 -42 35 -39 40 2 4 -1 6 -9 5 -7 -2 -12 4 -10
12 2 8 0 12 -4 8 -4 -4 -15 2 -25 13 -9 11 -20 16 -23 11 -3 -5 26 -35 64 -67
39 -32 70 -61 70 -64 0 -12 -91 -72 -100 -66 -6 3 -7 -1 -4 -9 3 -9 2 -16 -2
-16 -5 0 -24 -14 -43 -30 l-33 -30 -74 66 c-69 62 -85 92 -44 81 14 -3 17 -1
13 11 -5 11 -3 13 7 7 9 -6 11 -4 5 5 -6 10 -4 12 8 7 10 -4 16 -2 14 6 -1 7
6 11 16 9 12 -2 17 2 15 14 -2 9 3 19 11 22 10 3 11 0 5 -9 -6 -12 -5 -12 9 0
10 8 15 16 12 19 -3 3 0 11 6 19 10 11 15 11 28 1 14 -11 14 -11 4 2 -10 13
-8 18 8 28 11 7 25 10 31 6 7 -4 8 -3 4 4 -9 15 6 16 21 1 8 -8 13 -7 18 3 5
7 5 10 0 6 -4 -4 -14 -3 -22 3 -11 10 -10 14 4 24 12 9 22 10 30 4 8 -8 10 -4
6 11 -5 19 3 17 73 -21 44 -23 85 -46 92 -52 7 -5 15 -7 18 -4 3 3 -13 15 -36
27 -26 13 -40 26 -37 35 3 7 -4 21 -15 32 -20 18 -20 18 -16 -2 2 -11 10 -19
17 -17 7 1 10 -2 6 -8 -4 -6 -26 0 -58 16 l-52 27 38 32 c20 18 37 36 37 41 0
4 -5 3 -11 -3 -9 -9 -15 -8 -26 3 -8 8 -20 14 -26 14 -6 0 -2 -7 10 -15 21
-15 21 -17 5 -35 -18 -21 -38 -28 -26 -8 5 7 2 9 -8 5 -9 -3 -25 1 -37 10
l-22 15 28 36 c37 50 85 98 95 94 4 -1 7 4 6 10 -4 16 41 23 55 9 6 -6 20 -11
30 -11 14 0 17 -5 13 -16 -5 -14 -4 -15 9 -4 8 7 15 14 15 16 0 5 -372 190
-461 230 l-59 27 -20 -24 c-10 -13 -19 -30 -20 -38 0 -7 9 -2 21 13 21 26 49
35 49 15 0 -5 4 -8 8 -5 5 3 20 -2 33 -12 13 -9 30 -17 37 -19 49 -7 46 -14
-38 -98 -67 -67 -86 -82 -93 -70 -4 9 -12 13 -17 10 -13 -8 -16 46 -14 263 2
158 -1 202 -11 202 -9 0 -14 -43 -20 -172z m1293 87 c11 -14 24 -25 29 -25 4
0 23 -16 41 -36 26 -28 31 -39 21 -50 -6 -7 -15 -11 -20 -8 -5 3 -9 -2 -9 -11
0 -9 -6 -15 -12 -13 -7 3 -17 -4 -23 -15 -5 -11 -14 -19 -18 -18 -5 1 -17 -7
-26 -18 -10 -12 -21 -21 -25 -21 -5 0 -141 93 -159 110 -4 4 10 19 33 34 22
14 40 23 40 20 0 -4 9 5 21 20 11 14 25 26 30 26 6 0 17 7 25 15 21 21 29 19
52 -10z m-192 -132 c4 4 18 -5 31 -19 13 -14 29 -27 36 -28 21 -3 38 -17 32
-27 -3 -5 1 -6 10 -2 25 9 15 -29 -11 -42 -11 -5 -28 -18 -38 -28 -24 -23 -27
-23 -79 23 -25 22 -49 40 -54 40 -5 0 -16 9 -25 19 -16 19 -15 21 30 49 31 19
49 25 54 18 4 -6 10 -7 14 -3z m-68 -103 c31 -21 68 -48 82 -59 23 -18 23 -20
6 -27 -10 -4 -28 -16 -40 -28 -12 -12 -33 -29 -47 -40 -13 -10 -36 -30 -51
-43 l-26 -25 -80 62 -80 62 66 51 c37 28 76 59 86 69 11 10 21 18 23 18 2 0
30 -18 61 -40z m-749 -32 c11 4 12 -2 7 -24 -9 -36 -25 -56 -39 -47 -6 3 -7 1
-3 -5 10 -16 -6 -15 -24 1 -12 10 -12 9 -1 -5 11 -15 8 -23 -25 -58 -40 -42
-71 -56 -38 -17 l19 22 -23 -20 c-22 -19 -25 -19 -36 -3 -7 10 -17 14 -21 10
-4 -4 0 8 11 26 10 17 26 35 36 38 10 3 18 9 18 13 0 13 36 51 43 45 3 -3 8 4
12 15 3 12 11 19 16 16 5 -4 9 0 9 7 1 9 4 8 13 -3 7 -9 18 -14 26 -11z m2030
8 c-8 -8 -113 -45 -117 -42 -2 2 21 13 50 25 51 19 76 26 67 17z m-1666 -21
c-3 -9 -8 -14 -10 -11 -3 3 -2 9 2 15 9 16 15 13 8 -4z m82 -2 c20 -16 20 -16
0 -8 -11 4 -31 7 -45 6 -20 -1 -22 1 -10 9 21 13 32 12 55 -7z m-711 -58 c3
-22 3 -34 0 -27 -3 6 -10 10 -15 7 -5 -4 -18 3 -30 13 -15 15 -17 22 -8 27 8
6 10 4 4 -5 -5 -9 -4 -11 3 -6 7 4 12 15 12 25 0 24 12 35 21 19 4 -7 10 -31
13 -53z m312 52 c8 3 14 0 14 -5 0 -6 17 -18 38 -27 20 -9 48 -23 62 -30 14
-7 31 -10 39 -7 21 7 5 -15 -63 -87 -34 -35 -60 -68 -58 -75 2 -6 0 -8 -4 -4
-4 4 -14 3 -21 -4 -10 -8 -17 -8 -21 -2 -8 12 -43 28 -55 25 -5 -1 -6 3 -3 8
5 8 -35 31 -72 43 -9 2 13 31 57 74 64 64 89 96 61 79 -6 -4 -7 1 -3 11 4 10
8 13 10 7 3 -7 11 -9 19 -6z m1853 -22 c-9 -8 -242 -96 -246 -92 -2 2 50 25
114 50 111 43 143 53 132 42z m-2040 -146 c64 -34 153 -82 198 -106 l83 -45
-138 -110 c-75 -61 -148 -121 -163 -134 -14 -13 -28 -24 -31 -24 -7 0 5 53 21
93 16 40 14 93 -5 128 -8 17 -17 29 -19 27 -6 -6 7 -58 15 -58 8 0 -11 -88
-23 -107 -5 -7 -12 -13 -17 -13 -5 0 -8 6 -6 13 1 6 1 9 -1 5 -3 -5 -11 -8
-19 -8 -12 0 -12 4 -4 20 6 11 15 18 21 15 5 -4 9 0 9 9 0 8 -5 16 -11 18 -6
2 -11 16 -11 31 0 15 -3 25 -7 23 -3 -2 -6 13 -6 34 -1 27 3 36 12 33 14 -5
14 -7 17 -60 3 -52 12 -47 15 8 2 42 -2 54 -18 65 -19 14 -20 19 -35 167 -2
20 -2 37 2 37 3 0 57 -28 121 -61z m1776 41 c-3 -5 -14 -10 -23 -9 -14 0 -13
2 3 9 27 11 27 11 20 0z m-65 -25 c-14 -8 -29 -14 -35 -14 -5 0 1 6 15 14 14
8 30 14 35 14 6 0 -1 -6 -15 -14z m-60 -24 c-8 -5 -26 -11 -40 -15 -21 -5 -20
-3 5 9 32 15 60 20 35 6z m-90 -35 c-14 -7 -36 -16 -50 -20 -14 -3 -7 3 15 13
45 22 73 27 35 7z m-90 -36 c-8 -5 -19 -10 -25 -10 -5 0 -3 5 5 10 8 5 20 10
25 10 6 0 3 -5 -5 -10z m-50 -20 c-20 -13 -33 -13 -25 0 3 6 14 10 23 10 15 0
15 -2 2 -10z m-75 -30 c-22 -10 -44 -18 -50 -18 -5 0 8 8 30 19 22 10 45 18
50 18 6 0 -8 -9 -30 -19z m-75 -30 c-8 -5 -19 -10 -25 -10 -5 0 -3 5 5 10 8 5
20 10 25 10 6 0 3 -5 -5 -10z m-50 -19 c-8 -5 -26 -11 -40 -15 -21 -5 -20 -3
5 9 32 15 60 20 35 6z m576 -106 c1 -8 -2 -15 -7 -15 -5 0 -9 10 -9 22 0 23
12 17 16 -7z m-2029 -17 c-3 -7 -5 -2 -5 12 0 14 2 19 5 13 2 -7 2 -19 0 -25z
m136 -57 c4 0 7 -6 7 -12 0 -5 -5 -7 -11 -3 -7 4 -9 -1 -7 -12 2 -11 11 -18
21 -16 33 6 17 -35 -29 -73 -25 -20 -43 -40 -40 -43 3 -2 12 0 19 7 17 13 50
4 44 -13 -2 -6 -10 -42 -17 -81 -19 -110 -21 -118 -25 -113 -3 2 -7 33 -11 69
-3 35 -10 82 -15 104 -32 131 -32 128 -15 160 16 29 31 34 79 26z m180 -130
c51 -46 58 -56 35 -52 -4 0 -15 -10 -24 -24 -9 -14 -21 -22 -27 -18 -5 3 -7 1
-4 -4 4 -6 0 -16 -8 -23 -12 -10 -25 -3 -72 40 -42 39 -57 59 -54 74 2 12 4
27 5 34 2 14 46 48 46 36 0 -5 5 -3 12 4 9 9 14 8 22 -2 6 -7 37 -37 69 -65z
m782 19 c3 -5 -3 -10 -14 -10 -12 0 -21 5 -21 10 0 6 6 10 14 10 8 0 18 -4 21
-10z m-950 -20 c3 -5 1 -10 -4 -10 -6 0 -11 5 -11 10 0 6 2 10 4 10 3 0 8 -4
11 -10z m111 -145 c-2 -5 -18 -20 -37 -33 -19 -13 -44 -32 -56 -42 -13 -11
-23 -17 -23 -13 0 4 -7 -2 -15 -13 -18 -24 -18 -17 0 81 27 143 18 134 79 79
30 -27 53 -53 52 -59z m-199 57 c2 -9 6 -33 9 -52 3 -19 7 -44 9 -55 2 -11 4
-31 4 -45 1 -20 3 -22 11 -10 5 8 10 10 10 4 0 -6 -3 -14 -7 -18 -5 -4 -9 -12
-9 -17 -1 -5 -2 -12 -3 -15 -1 -7 -51 43 -51 51 0 2 -16 27 -35 57 l-36 53 26
23 c15 12 32 19 38 16 7 -4 9 -4 5 1 -9 9 12 39 20 30 3 -3 7 -13 9 -23z
m1883 -67 c0 -8 -2 -15 -4 -15 -2 0 -6 7 -10 15 -3 8 -1 15 4 15 6 0 10 -7 10
-15z m-23 -87 c-3 -7 -5 -2 -5 12 0 14 2 19 5 13 2 -7 2 -19 0 -25z m-920 16
c-3 -3 -12 -4 -19 -1 -8 3 -5 6 6 6 11 1 17 -2 13 -5z m-14 -31 c-6 -16 -25
-13 -31 5 -2 6 6 10 16 9 12 -1 18 -6 15 -14z m57 -95 c0 -46 2 -92 4 -103 2
-11 1 -15 -1 -8 -3 9 -19 11 -51 7 -62 -8 -74 -12 -67 -24 4 -6 -7 -10 -27
-10 l-33 0 30 19 c21 12 35 32 43 60 7 22 17 59 24 82 7 25 20 44 32 49 43 18
46 14 46 -72z m-363 40 c-3 -8 -6 -5 -6 6 -1 11 2 17 5 13 3 -3 4 -12 1 -19z
m245 -46 c3 -36 2 -38 -24 -34 -33 5 -38 37 -10 58 26 20 30 17 34 -24z m-65
-12 c2 -12 -3 -20 -12 -20 -10 0 -15 10 -15 32 0 25 3 29 12 20 6 -6 13 -21
15 -32z m-181 -46 c-4 -9 -9 -15 -11 -12 -3 3 -3 13 1 22 4 9 9 15 11 12 3 -3
3 -13 -1 -22z m-9 -91 c-2 -16 -4 -5 -4 22 0 28 2 40 4 28 2 -13 2 -35 0 -50z
m176 2 c-13 -10 -20 -10 -25 -2 -9 14 10 27 29 20 11 -4 10 -8 -4 -18z m194
-52 c-4 -38 -7 -114 -7 -169 l0 -101 -46 -13 c-42 -12 -48 -12 -59 3 -7 9 -19
17 -28 17 -9 0 -19 5 -22 10 -3 6 -17 7 -31 4 l-24 -6 0 131 c0 122 2 133 22
153 23 23 71 34 157 37 l44 1 -6 -67z m804 24 c-10 -9 -11 -8 -5 6 3 10 9 15
12 12 3 -3 0 -11 -7 -18z m-244 -44 c-3 -10 -5 -4 -5 12 0 17 2 24 5 18 2 -7
2 -21 0 -30z m-800 -25 c-3 -7 -5 -2 -5 12 0 14 2 19 5 13 2 -7 2 -19 0 -25z
m1588 -108 c-3 -11 -3 -25 1 -32 5 -7 7 -26 5 -41 -1 -15 3 -35 11 -44 11 -14
11 -16 -1 -8 -11 6 -13 4 -8 -7 3 -9 0 -23 -6 -31 -9 -11 -617 -168 -648 -167
-4 0 6 46 20 102 l26 101 280 72 c317 82 329 84 320 55z m-620 -129 c3 -5 2
-12 -3 -15 -5 -3 -9 1 -9 9 0 17 3 19 12 6z m-735 -22 c0 -18 -5 -20 -40 -18
-46 4 -62 -6 -25 -15 24 -6 34 -29 17 -40 -14 -8 -75 61 -67 74 5 8 10 9 14 1
5 -7 19 -6 46 4 53 19 55 18 55 -6z m700 1 c0 -5 8 -10 18 -11 14 0 14 -2 -3
-8 -25 -10 -72 8 -53 21 18 11 38 10 38 -2z m-347 -81 c28 -13 54 -49 35 -49
-6 0 -2 -9 10 -20 27 -25 27 -26 3 -26 -11 0 -19 3 -19 6 2 18 -4 23 -12 10
-5 -8 -12 -11 -17 -7 -4 5 -1 12 6 16 10 6 10 14 3 28 -11 20 -32 21 -142 8
-30 -3 -52 -3 -48 0 9 9 58 17 115 18 51 1 59 10 18 20 -18 4 -18 5 2 6 12 0
33 -4 46 -10z m88 -91 c-10 -11 -11 -9 -5 6 6 15 4 17 -6 11 -9 -6 -11 -4 -5
4 5 9 10 10 18 2 8 -8 7 -14 -2 -23z m-803 -3 c0 -14 -4 -28 -9 -31 -5 -3 -7
5 -5 18 3 13 5 26 5 31 2 18 9 4 9 -18z m692 19 c0 -3 -7 -12 -15 -20 -12 -13
-15 -13 -15 -1 0 7 3 17 7 20 8 8 23 9 23 1z m-330 -103 l0 -88 -60 -12 c-33
-7 -60 -15 -60 -18 0 -5 46 1 97 14 21 5 22 3 16 -44 -3 -26 -7 -49 -8 -51 -2
-2 -47 -8 -101 -13 -83 -8 -102 -13 -116 -32 -9 -12 -16 -24 -16 -27 2 -19 -4
-30 -15 -30 -7 0 -14 -14 -15 -31 -2 -19 2 -28 8 -24 5 3 10 13 10 21 0 8 3
14 8 14 4 0 5 -23 4 -50 -3 -39 -7 -48 -16 -40 -17 13 -26 2 -25 -29 0 -14 3
-20 6 -13 2 6 10 9 16 6 8 -5 8 -2 0 7 -18 18 -16 34 1 16 20 -19 16 -56 -6
-68 -18 -10 -25 -49 -9 -49 5 0 8 7 7 16 0 9 5 19 13 22 10 3 12 0 8 -12 -4
-10 -3 -25 2 -35 9 -15 4 -16 -47 -10 -31 3 -72 4 -91 1 l-33 -5 17 33 c9 18
13 35 8 39 -10 8 -10 32 1 50 5 8 3 17 -5 22 -12 8 -12 11 1 20 11 8 12 12 3
16 -9 3 -12 23 -11 56 l2 52 3 -47 c2 -27 8 -48 13 -48 5 0 11 -10 13 -22 2
-13 5 -3 5 22 0 34 -2 40 -8 25 -6 -14 -9 -1 -9 45 -1 46 -4 61 -11 50 -7 -10
-10 -11 -10 -2 0 7 6 15 14 18 8 3 13 11 10 19 -3 7 2 19 10 28 9 9 16 22 16
29 0 10 -3 9 -10 -2 -7 -11 -10 3 -10 46 0 34 5 66 13 73 10 11 10 13 0 7 -9
-5 -13 1 -13 19 0 14 4 24 9 20 5 -3 12 -1 16 5 4 6 10 8 15 5 5 -3 18 -1 29
5 13 6 22 6 26 0 3 -5 12 -7 20 -4 8 4 20 -6 30 -25 8 -17 22 -31 31 -31 8 0
12 -5 9 -10 -4 -6 -10 -8 -15 -5 -5 3 -12 0 -16 -6 -5 -9 0 -10 15 -6 15 3 21
1 18 -6 -2 -7 0 -20 5 -29 6 -12 5 -18 -2 -18 -6 0 -9 -4 -6 -8 8 -13 -33 -54
-46 -46 -6 4 -8 -1 -4 -14 7 -20 4 -21 -64 -19 -38 1 -66 0 -60 -1 6 -2 8 -7
6 -10 -2 -4 15 -7 37 -7 23 0 52 -4 64 -8 19 -7 25 -4 32 15 5 13 18 32 30 42
11 11 21 25 21 33 0 7 9 13 20 13 21 0 60 64 60 97 0 10 7 39 17 65 13 37 22
48 42 51 14 2 29 5 34 6 4 0 7 -39 7 -88z m-127 11 c-3 -20 -12 -44 -19 -53
-8 -8 -14 -29 -14 -45 0 -23 2 -26 11 -14 9 13 10 13 6 0 -2 -8 -10 -15 -18
-15 -22 0 -25 66 -3 82 16 12 16 13 1 13 -27 0 -23 54 6 67 31 15 37 8 30 -35z
m-65 1 c-4 -39 -28 -42 -28 -4 0 21 5 31 16 31 11 0 14 -8 12 -27z m-198 -29
c0 -8 -4 -12 -10 -9 -5 3 -10 10 -10 16 0 5 5 9 10 9 6 0 10 -7 10 -16z m4
-39 c-4 -8 -8 -15 -10 -15 -2 0 -4 7 -4 15 0 8 4 15 10 15 5 0 7 -7 4 -15z
m257 -18 c-13 -13 -26 -3 -16 12 3 6 11 8 17 5 6 -4 6 -10 -1 -17z m735 -59
c0 -36 4 -70 8 -76 3 -6 2 -13 -4 -17 -6 -4 -8 -11 -5 -16 4 -5 0 -9 -7 -9
-11 0 -14 22 -13 95 0 108 19 129 21 23z m-599 -100 c-3 -7 -5 -2 -5 12 0 14
2 19 5 13 2 -7 2 -19 0 -25z m0 -170 c-2 -18 -4 -6 -4 27 0 33 2 48 4 33 2
-15 2 -42 0 -60z m536 7 c4 -8 1 -17 -6 -21 -7 -4 -9 -4 -5 1 4 4 3 14 -3 22
-7 8 -8 13 -1 13 5 0 12 -7 15 -15z m-1363 -90 c0 -2 -15 -12 -32 -20 l-33
-16 25 20 c24 20 40 26 40 16z m1490 -51 c0 -8 -5 -14 -11 -14 -5 0 -7 -4 -4
-10 3 -5 8 -19 10 -31 3 -16 1 -18 -9 -10 -22 18 -26 61 -7 62 12 1 11 3 -3 6
-15 4 -16 7 -5 13 16 11 29 4 29 -16z"/>
<path d="M1874 2688 l-19 -23 23 19 c21 18 27 26 19 26 -2 0 -12 -10 -23 -22z"/>
<path d="M1750 2650 c-9 -6 -10 -10 -3 -10 6 0 15 5 18 10 8 12 4 12 -15 0z"/>
<path d="M1799 2623 c-13 -16 -12 -17 4 -4 9 7 17 15 17 17 0 8 -8 3 -21 -13z"/>
<path d="M1699 2593 c-13 -16 -12 -17 4 -4 9 7 17 15 17 17 0 8 -8 3 -21 -13z"/>
<path d="M1649 2543 c-12 -16 -12 -17 2 -6 9 7 20 9 24 5 5 -4 5 -1 1 6 -9 16
-11 15 -27 -5z"/>
<path d="M1414 2478 l-19 -23 23 19 c21 18 27 26 19 26 -2 0 -12 -10 -23 -22z"/>
<path d="M1590 2455 c7 -9 15 -13 17 -11 7 7 -7 26 -19 26 -6 0 -6 -6 2 -15z"/>
<path d="M1474 2438 l-19 -23 23 19 c21 18 27 26 19 26 -2 0 -12 -10 -23 -22z"/>
<path d="M1415 2420 c10 -11 20 -20 23 -20 3 0 -3 9 -13 20 -10 11 -20 20 -23
20 -3 0 3 -9 13 -20z"/>
<path d="M1566 2428 c3 -5 10 -6 15 -3 13 9 11 12 -6 12 -8 0 -12 -4 -9 -9z"/>
<path d="M655 2410 c-3 -6 1 -7 9 -4 18 7 21 14 7 14 -6 0 -13 -4 -16 -10z"/>
<path d="M669 2383 c-13 -16 -12 -17 4 -4 9 7 17 15 17 17 0 8 -8 3 -21 -13z"/>
<path d="M860 2416 c0 -2 8 -10 18 -17 15 -13 16 -12 3 4 -13 16 -21 21 -21
13z"/>
<path d="M910 2390 c0 -5 5 -10 11 -10 5 0 7 5 4 10 -3 6 -8 10 -11 10 -2 0
-4 -4 -4 -10z"/>
<path d="M815 2310 c21 -24 26 -25 19 -6 -3 8 -13 17 -22 21 -13 5 -13 2 3
-15z"/>
<path d="M544 1771 c2 -44 16 -50 16 -8 0 21 -4 37 -9 37 -4 0 -8 -13 -7 -29z"/>
<path d="M757 1829 c7 -7 15 -10 18 -7 3 3 -2 9 -12 12 -14 6 -15 5 -6 -5z"/>
<path d="M1428 1053 c7 -3 16 -2 19 1 4 3 -2 6 -13 5 -11 0 -14 -3 -6 -6z"/>
<path d="M1388 1043 c7 -3 16 -2 19 1 4 3 -2 6 -13 5 -11 0 -14 -3 -6 -6z"/>
<path d="M1165 730 c-4 -6 3 -10 14 -10 25 0 27 6 6 13 -8 4 -17 2 -20 -3z"/>
<path d="M1220 691 c0 -6 4 -13 10 -16 6 -3 7 1 4 9 -7 18 -14 21 -14 7z"/>
<path d="M1360 555 c-30 -7 -44 -13 -30 -14 14 0 48 6 75 13 62 18 29 18 -45
1z"/>
<path d="M1190 461 c0 -12 6 -21 15 -21 8 0 15 4 15 9 0 5 -7 14 -15 21 -13
10 -15 9 -15 -9z"/>
<path d="M1133 320 c0 -47 2 -66 4 -42 2 23 2 61 0 85 -2 23 -4 4 -4 -43z"/>
<path d="M1205 350 c3 -5 8 -10 11 -10 2 0 4 5 4 10 0 6 -5 10 -11 10 -5 0 -7
-4 -4 -10z"/>
<path d="M1935 2770 c3 -5 8 -10 11 -10 2 0 4 5 4 10 0 6 -5 10 -11 10 -5 0
-7 -4 -4 -10z"/>
<path d="M1970 2676 c0 -2 7 -7 16 -10 8 -3 12 -2 9 4 -6 10 -25 14 -25 6z"/>
<path d="M780 2610 c-13 -8 -12 -10 3 -10 9 0 17 5 17 10 0 12 -1 12 -20 0z"/>
<path d="M611 2586 c-9 -11 -9 -16 1 -22 7 -4 10 -4 6 1 -4 4 -3 14 3 22 6 7
9 13 6 13 -2 0 -10 -6 -16 -14z"/>
<path d="M940 2530 c0 -5 5 -10 11 -10 5 0 7 5 4 10 -3 6 -8 10 -11 10 -2 0
-4 -4 -4 -10z"/>
<path d="M1205 2419 c7 -18 -8 -32 -37 -36 -9 -2 -28 -14 -42 -28 -15 -15 -31
-23 -38 -19 -7 5 -8 3 -3 -6 4 -7 2 -16 -6 -21 -8 -5 -9 -9 -4 -9 6 0 30 17
54 38 l45 39 44 -25 c33 -19 46 -22 55 -13 9 9 8 11 -7 5 -14 -5 -17 -4 -12 5
5 8 3 12 -5 11 -8 -1 -24 1 -37 5 -22 7 -22 8 -6 27 14 15 15 21 5 31 -10 9
-11 9 -6 -4z"/>
<path d="M959 2313 l-24 -28 28 24 c25 23 32 31 24 31 -2 0 -14 -12 -28 -27z"/>
<path d="M1280 2325 c0 -8 91 -58 96 -52 3 2 -10 13 -28 24 -37 22 -68 34 -68
28z"/>
<path d="M1250 2300 c0 -10 8 -23 17 -29 14 -8 15 -12 4 -25 -17 -20 -5 -21
15 -2 9 10 10 17 4 21 -6 4 -8 11 -4 16 6 11 -13 39 -27 39 -5 0 -9 -9 -9 -20z"/>
<path d="M1050 2260 c0 -11 6 -20 14 -20 21 0 31 21 15 31 -22 14 -29 11 -29
-11z"/>
<path d="M1220 2255 c7 -8 17 -12 22 -9 6 4 5 10 -3 15 -22 14 -33 10 -19 -6z"/>
<path d="M1554 2255 c-3 -8 -10 -15 -16 -15 -5 0 -6 5 -2 12 5 7 3 8 -5 3 -9
-5 -7 -13 10 -31 17 -18 25 -21 36 -13 7 6 10 16 6 22 -4 6 0 8 10 4 24 -9 21
-2 -8 17 -23 15 -26 15 -31 1z m21 -23 c-2 -9 -4 -19 -4 -22 -1 -3 -5 1 -10 9
-10 16 -3 44 9 36 5 -3 7 -13 5 -23z"/>
<path d="M1034 2215 c8 -8 24 -15 35 -15 11 0 19 -6 17 -12 -1 -7 -1 -10 1 -5
3 4 9 5 13 2 5 -3 12 0 16 6 4 7 3 9 -3 6 -6 -4 -16 0 -23 9 -7 8 -19 13 -26
10 -7 -3 -16 -1 -19 4 -4 6 -11 10 -16 10 -6 0 -4 -7 5 -15z"/>
<path d="M1130 2206 c0 -2 7 -7 16 -10 8 -3 12 -2 9 4 -6 10 -25 14 -25 6z"/>
<path d="M533 2150 c0 -25 2 -35 4 -22 2 12 2 32 0 45 -2 12 -4 2 -4 -23z"/>
<path d="M2076 2177 c3 -10 9 -15 12 -12 3 3 0 11 -7 18 -10 9 -11 8 -5 -6z"/>
<path d="M1131 2177 c2 -1 13 -9 24 -17 19 -14 19 -14 6 3 -7 9 -18 17 -24 17
-6 0 -8 -1 -6 -3z"/>
<path d="M1188 2173 c7 -3 16 -2 19 1 4 3 -2 6 -13 5 -11 0 -14 -3 -6 -6z"/>
<path d="M1477 2119 c7 -7 15 -10 18 -7 3 3 -2 9 -12 12 -14 6 -15 5 -6 -5z"/>
<path d="M1425 2080 c3 -5 8 -10 11 -10 2 0 4 5 4 10 0 6 -5 10 -11 10 -5 0
-7 -4 -4 -10z"/>
<path d="M1546 2082 c-3 -5 1 -9 9 -9 8 0 12 4 9 9 -3 4 -7 8 -9 8 -2 0 -6 -4
-9 -8z"/>
<path d="M1520 2030 c0 -5 5 -10 11 -10 5 0 7 5 4 10 -3 6 -8 10 -11 10 -2 0
-4 -4 -4 -10z"/>
<path d="M876 2021 c-4 -5 -2 -12 3 -15 5 -4 12 -2 15 3 4 5 2 12 -3 15 -5 4
-12 2 -15 -3z"/>
<path d="M1677 2015 c3 -8 9 -12 14 -9 12 7 11 11 -5 17 -10 4 -13 1 -9 -8z"/>
<path d="M1132 2011 c-10 -6 -13 -33 -13 -97 1 -49 -2 -127 -5 -173 -6 -77 -5
-84 10 -78 10 4 20 7 22 7 10 0 3 57 -8 68 -9 9 -9 12 0 12 10 0 10 5 2 20
-12 22 -10 23 42 34 37 8 106 -20 90 -36 -14 -14 -16 -32 -2 -23 5 3 12 -5 16
-19 5 -21 11 -24 32 -20 45 7 157 24 165 24 4 0 7 7 7 15 0 18 -11 18 -115 1
-44 -8 -81 -13 -82 -12 -5 4 -3 214 3 233 5 17 0 25 -23 36 -31 16 -120 21
-141 8z m75 -18 c14 -17 14 -17 9 1 -5 16 -2 17 21 11 16 -4 29 -8 31 -10 9
-8 1 -170 -8 -179 -7 -7 -10 -7 -10 1 0 7 -14 8 -42 2 -32 -6 -47 -4 -58 7
-12 12 -12 14 0 14 10 0 11 3 4 10 -13 13 15 160 29 160 6 0 16 -8 24 -17z
m-70 -305 c-3 -7 -5 -2 -5 12 0 14 2 19 5 13 2 -7 2 -19 0 -25z"/>
<path d="M1230 1973 c0 -13 5 -23 10 -23 13 0 13 11 0 30 -8 12 -10 11 -10 -7z"/>
<path d="M1389 1983 c-13 -16 -12 -17 4 -4 9 7 17 15 17 17 0 8 -8 3 -21 -13z"/>
<path d="M1470 1990 c0 -6 7 -10 15 -10 8 0 15 2 15 4 0 2 -7 6 -15 10 -8 3
-15 1 -15 -4z"/>
<path d="M1840 1966 c0 -2 7 -9 15 -16 9 -7 15 -8 15 -2 0 5 -7 12 -15 16 -8
3 -15 4 -15 2z"/>
<path d="M1599 1924 c-7 -9 -22 -19 -33 -23 -14 -6 -16 -9 -5 -13 8 -3 26 7
40 23 15 16 23 29 19 29 -4 0 -14 -7 -21 -16z"/>
<path d="M1922 1879 c-16 -27 -28 -39 -38 -35 -9 3 -12 1 -9 -4 7 -12 -6 -38
-20 -40 -5 -1 -9 -7 -7 -15 1 -7 -6 -19 -16 -27 -23 -16 -36 -38 -24 -38 9 0
152 183 152 195 0 16 -18 0 -38 -36z"/>
<path d="M1844 1892 c4 -3 14 -7 22 -8 9 -1 13 0 10 4 -4 3 -14 7 -22 8 -9 1
-13 0 -10 -4z"/>
<path d="M1677 1849 c7 -7 15 -10 18 -7 3 3 -2 9 -12 12 -14 6 -15 5 -6 -5z"/>
<path d="M1235 1770 c-3 -5 -1 -10 4 -10 6 0 11 5 11 10 0 6 -2 10 -4 10 -3 0
-8 -4 -11 -10z"/>
<path d="M1718 1653 c7 -3 16 -2 19 1 4 3 -2 6 -13 5 -11 0 -14 -3 -6 -6z"/>
<path d="M710 1609 c0 -5 5 -7 10 -4 6 3 10 8 10 11 0 2 -4 4 -10 4 -5 0 -10
-5 -10 -11z"/>
<path d="M1281 1610 c-9 -5 -4 -7 13 -7 29 0 32 2 13 10 -8 3 -20 2 -26 -3z"/>
<path d="M1978 1603 c7 -3 16 -2 19 1 4 3 -2 6 -13 5 -11 0 -14 -3 -6 -6z"/>
<path d="M1374 1582 c3 -6 -2 -13 -11 -15 -16 -4 -16 -5 -1 -6 21 -1 32 15 17
25 -7 4 -9 3 -5 -4z"/>
<path d="M1768 1572 c-6 -21 -4 -23 15 -18 12 3 32 6 45 6 12 0 22 4 22 9 0 5
-15 5 -34 1 -28 -6 -36 -5 -38 9 -3 11 -6 9 -10 -7z"/>
<path d="M1701 1537 c-1 -11 -6 -15 -13 -11 -6 4 -8 3 -4 -4 3 -6 2 -13 -4
-17 -5 -3 -7 -17 -4 -31 5 -18 2 -24 -9 -24 -9 0 -19 5 -22 10 -3 6 -11 10
-16 10 -6 0 -4 -7 5 -15 8 -8 19 -15 25 -15 7 0 9 -29 6 -82 -7 -112 11 -58
20 61 4 47 11 91 17 98 5 7 8 18 5 25 -3 8 -6 6 -6 -5z"/>
<path d="M1814 1455 c0 -55 1 -76 3 -47 2 29 2 74 0 100 -2 26 -3 2 -3 -53z"/>
<path d="M1743 1526 c-21 -10 -33 -38 -15 -35 21 4 30 -3 30 -26 0 -13 -5 -22
-10 -19 -6 4 -4 -4 2 -16 8 -16 10 -44 6 -87 -4 -43 -3 -63 4 -63 8 0 11 41 9
130 -1 72 -3 129 -3 129 -1 -1 -11 -6 -23 -13z"/>
<path d="M1882 1505 c0 -16 2 -22 5 -12 2 9 2 23 0 30 -3 6 -5 -1 -5 -18z"/>
<path d="M1941 1484 c0 -11 3 -14 6 -6 3 7 2 16 -1 19 -3 4 -6 -2 -5 -13z"/>
<path d="M1580 1476 c0 -2 7 -7 16 -10 8 -3 12 -2 9 4 -6 10 -25 14 -25 6z"/>
<path d="M1720 1383 c0 -53 2 -94 5 -91 9 9 11 188 3 188 -5 0 -8 -44 -8 -97z"/>
<path d="M1960 1473 c0 -19 21 -27 33 -13 9 10 9 11 -2 5 -8 -4 -17 -2 -22 6
-6 9 -9 10 -9 2z"/>
<path d="M1233 1445 c0 -8 4 -12 9 -9 5 3 6 10 3 15 -9 13 -12 11 -12 -6z"/>
<path d="M1876 1379 c-8 -84 -8 -139 2 -139 5 0 7 28 6 63 l-2 62 7 -50 c7
-46 8 -42 9 38 2 100 -12 117 -22 26z"/>
<path d="M1982 1380 c-1 -8 5 -26 13 -40 14 -25 14 -25 15 -2 0 12 -4 22 -9
22 -5 0 -12 8 -14 18 -3 12 -5 12 -5 2z"/>
<path d="M1806 1284 c-4 -20 -5 -38 -3 -40 3 -3 8 11 11 32 4 20 5 38 3 40 -3
3 -8 -11 -11 -32z"/>
<path d="M1990 1271 c0 -23 4 -40 9 -37 8 6 5 65 -4 74 -3 3 -5 -14 -5 -37z"/>
<path d="M1683 1265 c0 -22 2 -30 4 -17 2 12 2 30 0 40 -3 9 -5 -1 -4 -23z"/>
<path d="M1750 1245 c0 -8 2 -15 4 -15 2 0 6 7 10 15 3 8 1 15 -4 15 -6 0 -10
-7 -10 -15z"/>
<path d="M2180 1250 c-11 -8 -7 -9 15 -4 37 8 45 14 19 14 -10 0 -26 -5 -34
-10z"/>
<path d="M2105 1230 c-13 -5 -14 -9 -5 -9 8 0 24 4 35 9 13 5 14 9 5 9 -8 0
-24 -4 -35 -9z"/>
<path d="M1651 1214 c0 -11 3 -14 6 -6 3 7 2 16 -1 19 -3 4 -6 -2 -5 -13z"/>
<path d="M2704 1174 c-18 -14 -18 -15 4 -4 12 6 22 13 22 15 0 8 -5 6 -26 -11z"/>
<path d="M1213 1133 c0 -7 5 -13 10 -13 5 0 4 -6 -2 -13 -6 -8 -8 -17 -4 -20
14 -15 22 -5 21 26 -1 31 -25 50 -25 20z"/>
<path d="M1156 1075 c-3 -8 -1 -15 4 -15 6 0 10 7 10 15 0 8 -2 15 -4 15 -2 0
-6 -7 -10 -15z"/>
<path d="M1548 1083 c7 -3 16 -2 19 1 4 3 -2 6 -13 5 -11 0 -14 -3 -6 -6z"/>
<path d="M1216 961 c-4 -5 -2 -12 3 -15 5 -4 12 -2 15 3 4 5 2 12 -3 15 -5 4
-12 2 -15 -3z"/>
<path d="M1920 949 c-49 -14 -55 -18 -25 -14 47 5 139 33 110 33 -11 0 -49 -8
-85 -19z"/>
<path d="M2033 913 c0 -34 2 -50 6 -39 5 14 10 16 15 8 4 -7 12 -12 19 -12 6
0 2 7 -9 15 -16 13 -17 16 -4 25 13 8 13 10 -2 10 -10 0 -18 7 -18 15 0 8 5
15 10 15 6 0 10 -5 10 -11 0 -5 4 -8 9 -4 5 3 12 1 16 -5 12 -19 25 -10 23 15
-2 26 -12 32 -23 15 -4 -7 -12 -7 -25 0 -10 5 -20 10 -22 10 -2 0 -4 -26 -5
-57z"/>
<path d="M1180 950 c-13 -8 -12 -10 3 -10 9 0 17 5 17 10 0 12 -1 12 -20 0z"/>
<path d="M955 945 c-5 -2 -30 -9 -54 -15 -23 -6 -41 -13 -39 -15 2 -2 35 4 73
15 39 10 61 18 50 18 -11 0 -24 -1 -30 -3z"/>
<path d="M1225 920 c-10 -11 -13 -20 -7 -20 7 0 12 4 12 9 0 6 9 8 21 6 12 -3
19 0 17 7 -7 20 -24 19 -43 -2z"/>
<path d="M780 900 c-20 -6 -21 -8 -5 -8 11 0 29 3 40 8 25 11 -1 11 -35 0z"/>
<path d="M2117 904 c-10 -11 -8 -24 4 -24 5 0 7 5 4 10 -3 6 -2 10 4 10 5 0
12 -5 14 -10 3 -6 4 -5 3 2 -3 14 -20 21 -29 12z"/>
<path d="M1177 893 c-12 -11 -8 -23 8 -23 8 0 15 7 15 15 0 16 -12 20 -23 8z"/>
<path d="M695 880 c-27 -7 -28 -8 -5 -8 14 0 34 3 45 8 25 11 2 11 -40 0z"/>
<path d="M1465 869 c-11 -4 -40 -8 -64 -8 -24 -1 -41 -4 -38 -8 4 -3 33 -5 65
-4 91 4 100 6 96 12 -7 12 -39 16 -59 8z"/>
<path d="M638 863 c7 -3 16 -2 19 1 4 3 -2 6 -13 5 -11 0 -14 -3 -6 -6z"/>
<path d="M2110 862 c0 -15 11 -21 27 -15 12 5 12 7 1 14 -17 11 -28 11 -28 1z"/>
<path d="M598 853 c7 -3 16 -2 19 1 4 3 -2 6 -13 5 -11 0 -14 -3 -6 -6z"/>
<path d="M1175 829 c-11 -16 -1 -19 13 -3 7 8 8 14 3 14 -5 0 -13 -5 -16 -11z"/>
<path d="M458 823 c6 -2 18 -2 25 0 6 3 1 5 -13 5 -14 0 -19 -2 -12 -5z"/>
<path d="M418 813 c7 -3 16 -2 19 1 4 3 -2 6 -13 5 -11 0 -14 -3 -6 -6z"/>
<path d="M1961 804 c0 -11 3 -14 6 -6 3 7 2 16 -1 19 -3 4 -6 -2 -5 -13z"/>
<path d="M378 803 c7 -3 16 -2 19 1 4 3 -2 6 -13 5 -11 0 -14 -3 -6 -6z"/>
<path d="M300 790 c-20 -6 -21 -8 -5 -8 11 0 31 4 45 8 20 6 21 8 5 8 -11 0
-31 -4 -45 -8z"/>
<path d="M477 779 c7 -7 15 -10 18 -7 3 3 -2 9 -12 12 -14 6 -15 5 -6 -5z"/>
<path d="M1800 768 c0 -4 17 -8 37 -8 20 0 34 3 30 6 -9 9 -67 11 -67 2z"/>
<path d="M175 760 c-25 -11 1 -11 35 0 20 6 21 8 5 8 -11 0 -29 -3 -40 -8z"/>
<path d="M1585 760 c3 -5 8 -10 11 -10 2 0 4 5 4 10 0 6 -5 10 -11 10 -5 0 -7
-4 -4 -10z"/>
<path d="M1888 753 c7 -3 16 -2 19 1 4 3 -2 6 -13 5 -11 0 -14 -3 -6 -6z"/>
<path d="M118 743 c7 -3 16 -2 19 1 4 3 -2 6 -13 5 -11 0 -14 -3 -6 -6z"/>
<path d="M812 700 c-189 -41 -262 -60 -228 -60 20 0 443 93 456 101 22 12 15
11 -228 -41z"/>
<path d="M68 733 c6 -2 18 -2 25 0 6 3 1 5 -13 5 -14 0 -19 -2 -12 -5z"/>
<path d="M1893 733 c-12 -4 -19 -63 -9 -63 2 0 11 -3 19 -6 12 -4 14 0 10 15
-3 12 -9 21 -14 21 -5 0 -9 5 -9 11 0 5 5 7 10 4 6 -3 10 1 10 9 0 9 -1 16 -2
15 -2 0 -9 -3 -15 -6z"/>
<path d="M18 723 c6 -2 18 -2 25 0 6 3 1 5 -13 5 -14 0 -19 -2 -12 -5z"/>
<path d="M2725 699 c-66 -16 -217 -49 -335 -74 -118 -25 -219 -50 -223 -54 -5
-5 28 0 73 10 45 11 99 21 119 23 21 1 42 5 47 8 5 3 25 9 44 13 97 20 425 97
429 101 9 9 -38 1 -154 -27z"/>
<path d="M1684 532 c-2 -179 2 -229 8 -113 2 33 8 56 16 59 9 3 11 -3 6 -22
-3 -14 -4 -26 -1 -26 10 0 97 92 97 102 0 6 -3 9 -6 5 -3 -3 -11 -1 -18 4 -38
32 -66 59 -66 64 0 6 54 -30 77 -52 7 -6 18 -13 25 -15 15 -5 -3 -29 -57 -76
-21 -17 -59 -72 -51 -72 2 0 20 15 40 33 52 48 66 59 66 50 0 -5 -16 -22 -35
-38 -19 -17 -35 -34 -35 -39 0 -5 7 -3 15 4 8 7 15 9 15 5 0 -5 10 3 22 16 14
16 19 18 15 7 -3 -10 -2 -20 3 -23 6 -4 10 -1 10 4 0 6 9 11 19 11 11 0 23 4
26 10 4 6 -3 9 -16 7 -19 -2 -23 3 -25 32 -1 20 1 28 6 21 5 -8 8 10 8 40 1
51 -17 98 -31 83 -4 -3 -7 -1 -7 5 0 6 -9 14 -20 17 -11 3 -20 14 -20 23 -1
14 -3 14 -13 -3 -11 -18 -12 -17 -18 20 l-6 40 -2 -47 c0 -26 -5 -50 -11 -53
-16 -10 -11 -39 9 -57 11 -9 22 -14 25 -11 3 4 6 1 6 -5 0 -16 -16 -15 -33 3
-8 8 -17 11 -21 8 -3 -4 -6 33 -6 80 0 48 -3 87 -7 87 -5 0 -9 -85 -9 -188z
m103 85 c6 0 9 -7 5 -16 -3 -9 -2 -13 2 -9 8 7 46 -21 46 -35 0 -8 -13 1 -50
35 -10 9 -20 15 -22 13 -1 -2 -10 4 -18 13 -13 14 -12 15 5 8 11 -5 25 -9 32
-9z m-43 -103 c9 -3 16 -11 16 -16 0 -6 -6 -5 -15 2 -12 10 -18 10 -30 0 -9
-8 -15 -8 -15 -2 0 6 6 13 13 15 6 3 13 6 14 6 1 1 8 -2 17 -5z"/>
<path d="M1763 703 c0 -9 4 -10 14 -2 7 6 13 12 13 14 0 1 -6 2 -13 2 -8 0
-14 -6 -14 -14z"/>
<path d="M1850 705 c0 -8 4 -15 10 -15 5 0 7 7 4 15 -4 8 -8 15 -10 15 -2 0
-4 -7 -4 -15z"/>
<path d="M2124 706 c-3 -9 -12 -12 -21 -9 -11 4 -14 3 -9 -6 11 -17 39 -9 42
12 3 21 -4 23 -12 3z"/>
<path d="M1820 691 c0 -11 5 -23 10 -26 6 -3 10 -11 10 -16 0 -6 -7 -4 -15 3
-42 38 -45 39 -45 24 0 -8 7 -21 16 -28 8 -7 24 -21 35 -30 10 -10 20 -13 20
-8 3 26 3 37 -4 68 -7 35 -27 44 -27 13z"/>
<path d="M2775 655 c-49 -14 -94 -25 -99 -25 -5 0 -7 -3 -3 -6 3 -3 42 4 88
16 45 11 88 19 96 16 8 -3 12 -2 8 3 -3 5 1 12 7 14 31 12 -14 4 -97 -18z"/>
<path d="M408 663 c7 -3 16 -2 19 1 4 3 -2 6 -13 5 -11 0 -14 -3 -6 -6z"/>
<path d="M1875 649 c3 -4 -1 -10 -7 -12 -10 -4 -10 -6 0 -6 6 -1 12 -6 12 -12
0 -5 -5 -7 -12 -3 -7 5 -8 3 -2 -7 12 -19 13 -82 2 -96 -6 -7 -5 -14 2 -18 8
-5 7 -11 -2 -22 -10 -12 -9 -17 5 -25 11 -5 16 -16 12 -26 -4 -15 2 -17 35
-17 22 0 40 3 40 7 0 5 5 8 11 8 5 0 7 -6 3 -12 -5 -9 -2 -8 10 1 9 8 15 20
12 27 -2 6 2 20 10 31 13 16 14 14 12 -27 -2 -34 -7 -44 -18 -42 -11 3 -12 1
-3 -8 6 -7 16 -9 22 -6 15 10 14 103 -1 109 -10 4 -10 6 0 6 6 1 12 6 12 11 0
6 -6 10 -12 10 -17 0 -11 112 6 122 8 6 8 8 -1 8 -17 0 -22 -11 -24 -61 -1
-27 -10 -52 -21 -65 -18 -20 -18 -23 -2 -38 9 -9 13 -20 9 -24 -4 -4 -10 -1
-12 6 -3 7 -12 20 -21 29 -11 10 -13 18 -6 20 6 2 20 10 30 18 30 21 10 28
-24 8 -23 -13 -30 -23 -27 -38 3 -11 2 -15 -1 -8 -3 7 -11 10 -18 7 -7 -3 -12
4 -12 16 0 11 5 19 11 19 21 -3 31 2 57 24 23 20 28 39 18 67 -1 3 -2 9 -1 14
1 5 -5 6 -13 3 -8 -3 -17 -3 -21 1 -9 9 -75 10 -70 1z m31 -26 c-6 -15 -4 -15
14 2 11 10 23 15 27 12 6 -7 -25 -36 -39 -37 -11 0 -20 19 -13 30 10 16 18 11
11 -7z m68 -15 c-2 -7 -19 -23 -36 -35 -24 -17 -35 -20 -45 -12 -16 14 -6 32
14 25 8 -3 26 3 40 14 30 23 34 24 27 8z m26 -102 c0 -3 -4 -8 -10 -11 -5 -3
-10 -1 -10 4 0 6 5 11 10 11 6 0 10 -2 10 -4z m-76 -32 c9 -22 -3 -32 -14 -14
-12 19 -12 30 -1 30 5 0 12 -7 15 -16z m26 7 c0 -5 7 -17 16 -26 15 -15 15
-17 -2 -30 -16 -11 -20 -11 -27 1 -5 9 -4 21 3 30 9 10 9 14 1 14 -6 0 -11 5
-11 10 0 6 5 10 10 10 6 0 10 -4 10 -9z m-34 -59 c-4 -3 -11 0 -16 8 -15 24
-11 33 6 15 9 -9 13 -19 10 -23z"/>
<path d="M1940 440 c0 -5 5 -10 10 -10 6 0 10 5 10 10 0 6 -4 10 -10 10 -5 0
-10 -4 -10 -10z"/>
<path d="M321 624 c0 -11 3 -14 6 -6 3 7 2 16 -1 19 -3 4 -6 -2 -5 -13z"/>
<path d="M341 624 c0 -11 3 -14 6 -6 3 7 2 16 -1 19 -3 4 -6 -2 -5 -13z"/>
<path d="M238 581 c-124 -25 -230 -50 -235 -54 -4 -5 6 -5 22 -1 17 4 91 19
165 34 l135 26 6 -61 6 -60 1 62 2 62 58 11 c31 6 71 15 87 20 84 23 -40 4
-247 -39z"/>
<path d="M2858 623 c7 -3 16 -2 19 1 4 3 -2 6 -13 5 -11 0 -14 -3 -6 -6z"/>
<path d="M2390 555 c-165 -42 -230 -62 -198 -61 25 0 44 4 42 7 -6 10 64 21
89 14 14 -4 17 -3 9 2 -16 12 281 88 299 77 7 -4 10 -3 5 4 -3 6 2 13 11 15
12 3 13 5 3 5 -8 0 -125 -28 -260 -63z"/>
<path d="M2780 610 c-20 -6 -21 -8 -5 -8 11 0 29 3 40 8 25 11 -1 11 -35 0z"/>
<path d="M2022 570 c0 -19 2 -27 5 -17 2 9 2 25 0 35 -3 9 -5 1 -5 -18z"/>
<path d="M1518 583 c6 -2 18 -2 25 0 6 3 1 5 -13 5 -14 0 -19 -2 -12 -5z"/>
<path d="M2650 580 c-18 -12 -2 -12 25 0 13 6 15 9 5 9 -8 0 -22 -4 -30 -9z"/>
<path d="M312 534 c-1 -17 -4 -47 -7 -65 l-5 -34 11 34 c5 18 8 47 6 65 l-4
31 -1 -31z"/>
<path d="M2538 553 c7 -3 16 -2 19 1 4 3 -2 6 -13 5 -11 0 -14 -3 -6 -6z"/>
<path d="M812 500 c-123 -27 -226 -51 -230 -54 -8 -9 -6 -9 179 29 213 44 289
62 297 69 9 10 -16 5 -246 -44z"/>
<path d="M2478 543 c6 -2 18 -2 25 0 6 3 1 5 -13 5 -14 0 -19 -2 -12 -5z"/>
<path d="M2388 523 c6 -2 18 -2 25 0 6 3 1 5 -13 5 -14 0 -19 -2 -12 -5z"/>
<path d="M850 460 c-161 -30 -208 -42 -140 -34 56 6 264 43 305 54 66 18 -22
7 -165 -20z"/>
<path d="M2790 448 c-47 -10 -138 -27 -204 -38 -65 -12 -144 -28 -175 -36 -31
-8 -74 -12 -96 -10 -33 4 -35 4 -15 -4 19 -7 12 -8 -27 -4 -28 3 -60 1 -70 -4
-14 -8 -7 -10 27 -7 42 4 37 1 -19 -11 -13 -3 -21 -7 -19 -10 3 -2 85 11 182
31 97 19 180 34 184 33 4 -1 15 2 25 7 9 4 26 5 37 2 11 -3 18 -2 15 3 -3 4
47 16 110 26 105 16 147 27 135 36 -3 2 -43 -4 -90 -14z"/>
<path d="M321 444 c0 -11 3 -14 6 -6 3 7 2 16 -1 19 -3 4 -6 -2 -5 -13z"/>
<path d="M1518 443 c7 -3 16 -2 19 1 4 3 -2 6 -13 5 -11 0 -14 -3 -6 -6z"/>
<path d="M1368 421 c-48 -9 -90 -20 -95 -25 -5 -5 2 -6 17 -3 14 4 54 12 90
18 36 6 69 15 75 20 5 5 7 8 5 8 -3 -1 -44 -9 -92 -18z"/>
<path d="M2141 411 c-11 -7 -11 -10 0 -14 10 -4 10 -6 2 -6 -7 -1 -13 -10 -13
-21 0 -11 6 -20 13 -20 9 0 9 -2 -1 -9 -17 -10 -15 -21 5 -43 8 -9 12 -21 9
-26 -9 -15 24 -39 99 -71 62 -26 71 -33 78 -63 5 -18 12 -47 16 -64 8 -32 8
-32 -48 -48 -31 -8 -65 -17 -76 -19 -11 -2 30 -4 92 -3 61 1 109 4 107 7 -4 8
21 19 41 19 7 0 15 -6 18 -12 2 -7 3 -5 2 4 -2 12 4 18 18 19 22 0 22 0 0 9
-13 5 -23 14 -23 20 0 5 -5 10 -11 10 -6 0 -8 -8 -4 -19 4 -14 0 -20 -20 -23
-29 -6 -33 6 -7 22 15 10 13 11 -8 6 -14 -2 -34 -7 -46 -11 -18 -6 -21 -1 -30
49 -6 31 -9 56 -6 56 8 0 187 -94 192 -101 3 -4 24 -6 47 -6 23 1 37 5 31 8
-6 4 5 9 23 11 69 10 224 49 234 60 7 7 3 8 -13 3 -12 -3 -85 -21 -162 -39
-134 -31 -140 -32 -146 -14 -3 12 -12 17 -20 14 -17 -6 -335 147 -355 170 -8
10 -14 42 -14 79 0 69 -4 78 -24 66z m269 -385 c0 -9 -7 -12 -20 -9 -11 3 -20
9 -20 14 0 5 9 9 20 9 11 0 20 -6 20 -14z m-60 -6 c-8 -5 -24 -9 -35 -9 -16 1
-16 2 5 9 35 11 48 11 30 0z"/>
<path d="M2616 349 c-131 -26 -273 -53 -315 -60 -42 -6 -80 -16 -86 -21 -7 -7
-3 -8 10 -5 11 3 49 11 85 17 183 31 561 108 568 115 9 9 -15 5 -262 -46z"/>
<path d="M961 349 c-24 -5 -46 -11 -49 -14 -7 -7 88 6 113 16 20 8 20 8 0 7
-11 0 -40 -4 -64 -9z"/>
<path d="M1518 343 c7 -3 16 -2 19 1 4 3 -2 6 -13 5 -11 0 -14 -3 -6 -6z"/>
<path d="M2838 343 c7 -3 16 -2 19 1 4 3 -2 6 -13 5 -11 0 -14 -3 -6 -6z"/>
<path d="M1323 307 c-65 -18 -62 -27 4 -11 73 19 83 22 58 22 -11 0 -39 -5
-62 -11z"/>
<path d="M1 253 c0 -11 3 -13 6 -5 2 6 18 12 35 12 22 0 29 -4 26 -17 -2 -9
-10 -19 -18 -21 -13 -5 -13 -3 0 14 8 10 0 6 -18 -10 -18 -17 -32 -33 -32 -37
0 -10 76 -16 100 -7 11 4 20 3 20 -2 0 -6 18 -10 41 -10 28 0 39 4 36 13 -2 8
-26 12 -67 13 -60 1 -85 13 -61 29 6 3 11 15 11 26 0 16 -7 19 -40 19 -32 0
-40 -4 -39 -17z m54 -53 c4 -6 -6 -10 -22 -10 -22 0 -25 2 -13 10 19 12 27 12
35 0z"/>
<path d="M416 223 c-3 -21 -5 -58 -5 -83 1 -41 2 -42 9 -15 6 23 8 25 9 8 1
-29 -9 -54 -20 -47 -5 3 -9 0 -9 -5 0 -13 10 -14 28 -3 9 6 12 31 10 80 -2 43
1 72 7 72 6 0 3 5 -5 10 -12 8 -11 10 8 10 12 0 22 -5 22 -11 0 -8 5 -8 15 1
8 7 21 10 30 7 8 -4 17 -2 20 3 4 6 -18 10 -53 10 l-59 0 -7 -37z m11 -55 c-3
-7 -5 -2 -5 12 0 14 2 19 5 13 2 -7 2 -19 0 -25z"/>
<path d="M2668 222 c-103 -20 -186 -38 -183 -40 6 -7 384 63 393 73 8 8 -13 5
-210 -33z"/>
<path d="M1728 243 c7 -3 16 -2 19 1 4 3 -2 6 -13 5 -11 0 -14 -3 -6 -6z"/>
<path d="M500 214 c0 -14 4 -22 10 -19 6 3 7 -1 4 -9 -3 -9 -10 -14 -14 -11
-14 9 -19 -23 -13 -94 6 -69 6 -69 -21 -74 l-26 -4 27 1 c22 1 29 7 32 26 l4
25 8 -25 c5 -19 7 -13 7 25 1 37 -2 45 -8 30 -15 -34 -12 7 5 61 14 48 11 94
-6 94 -5 0 -9 -12 -9 -26z"/>
<path d="M993 233 c9 -2 23 -2 30 0 6 3 -1 5 -18 5 -16 0 -22 -2 -12 -5z"/>
<path d="M1581 225 c-60 -14 -91 -26 -60 -24 35 1 181 37 154 37 -16 0 -59 -6
-94 -13z"/>
<path d="M925 220 c-13 -5 -14 -9 -5 -9 8 0 24 4 35 9 13 5 14 9 5 9 -8 0 -24
-4 -35 -9z"/>
<path d="M1790 201 c-75 -14 -88 -18 -62 -22 17 -3 32 -2 32 3 0 4 15 8 33 8
17 0 55 7 82 14 67 19 31 17 -85 -3z"/>
<path d="M541 184 c0 -11 3 -14 6 -6 3 7 2 16 -1 19 -3 4 -6 -2 -5 -13z"/>
<path d="M1416 189 c5 -9 -4 -10 -32 -5 -31 5 -35 4 -21 -5 21 -13 91 -3 82
12 -4 5 -13 9 -21 9 -9 0 -12 -5 -8 -11z"/>
<path d="M762 181 c-11 -7 -11 -9 1 -14 16 -6 27 0 27 15 0 10 -11 10 -28 -1z"/>
<path d="M677 174 c-4 -4 -7 -17 -6 -28 1 -18 2 -18 9 4 4 14 8 19 9 11 1 -11
4 -11 18 0 11 10 14 10 9 2 -4 -8 -1 -13 9 -13 9 0 15 6 13 13 -5 13 -50 22
-61 11z"/>
<path d="M1300 170 c34 -7 34 -7 6 -9 -16 0 -27 -4 -23 -7 3 -4 23 -3 44 1 32
6 35 9 18 15 -11 5 -33 8 -50 8 -29 -1 -29 -1 5 -8z"/>
<path d="M1590 169 c-30 -5 -59 -11 -65 -14 -16 -8 100 5 131 15 38 11 6 10
-66 -1z"/>
<path d="M2428 173 c6 -2 18 -2 25 0 6 3 1 5 -13 5 -14 0 -19 -2 -12 -5z"/>
<path d="M2615 160 c-3 -6 1 -7 9 -4 18 7 21 14 7 14 -6 0 -13 -4 -16 -10z"/>
<path d="M651 138 c-1 -23 -21 -34 -32 -17 -8 12 -11 12 -19 -1 -6 -10 -10
-11 -10 -2 0 6 -6 12 -14 12 -18 0 -28 -50 -11 -56 7 -3 11 -14 8 -25 -5 -16
0 -19 33 -17 38 1 38 1 6 5 -25 3 -32 8 -28 20 3 8 6 21 6 29 0 8 10 14 24 14
27 0 50 23 43 42 -4 8 -6 7 -6 -4z m-71 -38 c0 -11 -4 -20 -9 -20 -5 0 -7 9
-4 20 3 11 7 20 9 20 2 0 4 -9 4 -20z"/>
<path d="M2215 140 c-42 -11 -1 -11 50 -1 34 7 35 9 10 9 -16 0 -43 -4 -60 -8z"/>
<path d="M9 131 c11 -7 11 -10 0 -15 -8 -3 7 -5 34 -3 26 1 47 -2 47 -7 0 -5
2 -7 5 -4 16 16 -10 33 -53 35 -29 2 -42 -1 -33 -6z"/>
<path d="M955 133 c-22 -3 -44 -8 -49 -13 -10 -10 47 -4 99 10 31 9 17 9 -50
3z"/>
<path d="M1320 125 c-36 -7 -51 -13 -35 -13 17 0 62 6 100 13 43 8 57 13 35
13 -19 0 -64 -6 -100 -13z"/>
<path d="M116 124 c6 -2 10 -17 8 -32 -2 -15 -1 -19 2 -8 5 15 8 16 15 5 7
-10 9 -7 7 11 -2 16 -10 26 -23 27 -11 2 -15 0 -9 -3z"/>
<path d="M531 114 c0 -11 3 -14 6 -6 3 7 2 16 -1 19 -3 4 -6 -2 -5 -13z"/>
<path d="M674 95 c-5 -20 -9 -23 -15 -13 -6 9 -9 6 -9 -10 0 -28 23 -25 29 4
4 23 19 34 47 34 17 0 20 -5 16 -25 -2 -14 1 -32 8 -40 13 -16 10 -18 -35 -28
-12 -3 -8 -5 12 -6 36 -1 48 20 41 75 -3 26 -7 29 -45 32 -39 3 -43 1 -49 -23z
m83 -37 c-3 -7 -5 -2 -5 12 0 14 2 19 5 13 2 -7 2 -19 0 -25z"/>
<path d="M2035 110 c-3 -5 -1 -10 4 -10 6 0 11 5 11 10 0 6 -2 10 -4 10 -3 0
-8 -4 -11 -10z"/>
<path d="M2673 113 c9 -2 23 -2 30 0 6 3 -1 5 -18 5 -16 0 -22 -2 -12 -5z"/>
<path d="M2560 100 c0 -5 5 -10 10 -10 6 0 10 5 10 10 0 6 -4 10 -10 10 -5 0
-10 -4 -10 -10z"/>
<path d="M2603 103 c9 -2 25 -2 35 0 9 3 1 5 -18 5 -19 0 -27 -2 -17 -5z"/>
<path d="M998 93 c7 -3 16 -2 19 1 4 3 -2 6 -13 5 -11 0 -14 -3 -6 -6z"/>
<path d="M928 83 c-25 -6 -22 -23 3 -23 11 0 18 4 15 9 -4 5 12 7 36 4 24 -3
41 -4 38 -1 -8 8 -73 15 -92 11z"/>
<path d="M1795 75 c-38 -7 -56 -13 -40 -13 17 -1 62 5 100 12 39 8 57 14 40
14 -16 -1 -61 -6 -100 -13z"/>
<path d="M2800 60 c-36 -10 -60 -19 -53 -19 20 -2 117 22 128 31 12 11 2 9
-75 -12z"/>
<path d="M110 51 c0 -6 -16 -11 -35 -11 -19 0 -35 -5 -35 -11 0 -6 9 -8 21 -4
15 5 19 4 14 -5 -5 -8 3 -10 26 -8 26 2 34 8 34 22 0 11 -6 21 -12 24 -7 2
-13 -1 -13 -7z m15 -20 c-3 -6 -14 -11 -23 -11 -13 0 -13 2 4 14 21 15 30 14
19 -3z"/>
<path d="M400 31 c0 -17 4 -31 10 -31 5 0 6 7 3 17 -5 11 -3 14 6 8 9 -5 12
-2 9 10 -6 33 -28 29 -28 -4z"/>
<path d="M1091 44 c0 -11 3 -14 6 -6 3 7 2 16 -1 19 -3 4 -6 -2 -5 -13z"/>
<path d="M1595 48 c-38 -5 -73 -13 -78 -17 -6 -6 103 7 183 22 48 9 -31 5
-105 -5z"/>
<path d="M703 33 c9 -2 23 -2 30 0 6 3 -1 5 -18 5 -16 0 -22 -2 -12 -5z"/>
<path d="M1121 24 c0 -11 3 -14 6 -6 3 7 2 16 -1 19 -3 4 -6 -2 -5 -13z"/>
<path d="M2645 25 l-50 -14 45 6 c25 3 54 9 65 14 31 12 -4 9 -60 -6z"/>
<path d="M2500 26 c0 -2 8 -10 18 -17 15 -13 16 -12 3 4 -13 16 -21 21 -21 13z"/>
<path d="M570 10 c0 -5 7 -7 15 -4 8 4 15 8 15 10 0 2 -7 4 -15 4 -8 0 -15 -4
-15 -10z"/>
</g>
</svg>
