<?xml version="1.0" standalone="no"?>
<!DOCTYPE svg PUBLIC "-//W3C//DTD SVG 20010904//EN"
 "http://www.w3.org/TR/2001/REC-SVG-20010904/DTD/svg10.dtd">
<svg version="1.0" xmlns="http://www.w3.org/2000/svg"
 width="300.000000pt" height="222.000000pt" viewBox="0 0 300.000000 222.000000"
 preserveAspectRatio="xMidYMid meet">
<metadata>
Created by potrace 1.10, written by Peter Selinger 2001-2011
</metadata>
<g transform="translate(0.000000,222.000000) scale(0.100000,-0.100000)"
fill="#000000" stroke="none">
<path d="M2015 1889 c-39 -19 -81 -62 -91 -91 -3 -10 -10 -18 -16 -18 -6 0
-18 8 -27 18 -31 33 -124 72 -172 72 -65 0 -199 -29 -229 -49 -14 -9 -43 -26
-65 -36 -22 -11 -42 -22 -45 -25 -11 -11 -190 -105 -445 -234 -77 -39 -142
-74 -145 -77 -3 -4 -14 -9 -25 -13 -11 -3 -36 -19 -55 -36 -19 -16 -38 -30
-42 -30 -11 0 -78 -72 -111 -119 -39 -57 -47 -131 -22 -196 9 -25 21 -45 26
-45 13 0 11 -57 -2 -66 -6 -3 -8 -17 -4 -31 4 -19 1 -26 -15 -30 -11 -3 -20
-11 -20 -18 0 -7 -7 -16 -16 -19 -13 -5 -15 -28 -12 -166 4 -218 22 -217 26 1
2 166 3 166 27 177 18 8 25 20 25 39 0 16 5 35 10 43 9 13 14 10 32 -15 36
-50 113 -119 157 -141 27 -14 38 -24 31 -29 -11 -7 -140 51 -193 88 -27 19
-45 18 -33 -1 5 -8 66 -42 146 -82 57 -29 102 -42 124 -36 14 3 26 11 26 16 0
13 -27 13 -35 0 -3 -5 -13 -10 -21 -10 -8 0 -14 5 -14 10 0 6 9 10 20 10 11 0
20 5 20 10 0 6 -5 10 -11 10 -35 0 -172 122 -227 203 -71 102 -78 176 -26 262
48 80 131 151 239 202 17 8 39 19 50 26 18 10 169 88 320 165 28 14 102 54
165 90 136 77 172 96 185 98 6 2 47 11 92 20 72 16 88 16 135 5 55 -15 88 -31
126 -65 34 -30 26 -39 -17 -16 -99 50 -204 40 -277 -27 -22 -19 -57 -50 -79
-69 -22 -18 -37 -36 -33 -40 9 -9 43 14 93 62 68 66 90 76 169 77 51 1 85 -5
121 -20 40 -17 46 -23 31 -29 -11 -4 -21 -2 -26 6 -14 22 -137 19 -185 -4 -62
-30 -173 -133 -184 -171 -11 -39 0 -105 22 -139 26 -39 78 -74 127 -85 55 -12
177 -8 193 8 15 15 37 14 37 -3 0 -19 -144 -55 -196 -50 -53 6 -131 35 -152
57 -23 25 -52 100 -52 137 0 16 -3 21 -10 14 -6 -6 -6 -31 1 -73 14 -78 57
-127 119 -137 64 -10 57 -24 -12 -24 -104 0 -197 44 -217 102 -13 36 -31 36
-31 0 0 -88 180 -146 352 -111 127 25 170 43 228 96 l56 51 69 -57 c39 -32 77
-68 85 -80 15 -22 40 -29 40 -11 0 6 -12 22 -26 35 -21 19 -23 25 -10 25 9 0
16 -4 16 -9 0 -11 90 24 178 69 71 36 77 36 96 8 29 -44 7 -138 -31 -138 -17
0 -76 -31 -81 -42 -2 -5 -12 -8 -21 -8 -10 0 -54 -12 -97 -26 -74 -24 -91 -26
-275 -26 -107 0 -231 5 -275 11 -209 31 -285 45 -359 67 -61 18 -111 25 -210
28 -129 4 -130 4 -185 -26 -30 -16 -61 -35 -68 -41 -21 -17 -52 -84 -52 -111
0 -33 60 -96 91 -96 282 -3 389 -11 434 -30 65 -27 144 -37 435 -54 160 -9
259 -11 264 -5 6 6 5 9 -5 9 -7 1 -70 5 -139 10 -69 5 -163 12 -210 15 -114 7
-246 24 -295 37 -108 30 -276 47 -392 40 -104 -6 -131 4 -153 57 -19 46 21
108 93 144 51 26 62 28 173 26 83 -1 140 -7 189 -21 144 -40 157 -42 305 -63
131 -18 387 -37 420 -31 14 2 55 7 92 11 58 6 151 33 288 86 19 8 39 20 43 27
4 6 16 12 25 12 10 0 18 9 19 23 10 96 10 103 -9 130 -23 32 -43 34 -101 8
-130 -60 -160 -71 -183 -71 -25 0 -118 54 -142 82 -24 29 8 64 35 37 17 -17
120 -23 166 -10 120 36 154 48 184 69 39 26 43 26 43 10 -1 -41 -185 -108
-298 -108 -60 0 -73 -3 -64 -12 16 -16 137 -12 197 7 24 7 47 10 50 7 3 -4 9
-2 13 3 4 6 25 20 47 31 46 25 87 74 68 81 -7 3 -13 18 -13 33 0 16 -4 31 -9
34 -4 3 -11 18 -14 33 -3 18 -43 65 -105 128 -148 148 -206 178 -277 144z m84
-15 c34 -7 42 -24 11 -24 -20 0 -106 -44 -125 -64 -6 -6 -21 -26 -34 -43 -12
-18 -27 -33 -32 -33 -12 0 -12 37 0 42 5 2 20 23 34 47 14 26 39 53 58 63 37
20 43 21 88 12z m111 -64 c12 -12 18 -25 15 -30 -4 -6 2 -13 12 -17 19 -7 68
-42 62 -44 -2 -1 -24 -2 -49 -3 -60 -3 -129 -15 -160 -28 -45 -19 -85 -42
-100 -57 -13 -13 -15 -12 -18 15 -3 24 4 36 43 72 26 23 55 42 65 42 11 0 22
5 25 10 3 6 29 10 56 10 31 0 48 4 44 10 -10 17 -90 11 -138 -9 -26 -11 -61
-38 -82 -65 -43 -50 -68 -53 -33 -3 70 99 205 150 258 97z m-325 -121 c48 -23
60 -34 67 -65 5 -20 1 -22 -76 -26 -73 -4 -92 -10 -186 -55 -58 -28 -123 -53
-145 -55 -43 -3 -43 -3 -30 58 5 22 101 110 156 143 48 28 154 28 214 0z m442
-14 c36 -25 72 -117 55 -141 -9 -13 -54 -44 -63 -44 -4 0 -5 9 -2 20 8 30 -25
108 -53 127 -21 14 -30 14 -63 3 -22 -7 -44 -22 -49 -34 -21 -42 -33 -96 -30
-128 3 -31 1 -33 -27 -29 -34 4 -77 24 -92 43 -6 7 -13 34 -15 60 -5 45 -4 47
36 76 36 25 76 40 151 56 50 10 132 5 152 -9z m-67 -74 c12 -24 13 -34 1 -27
-5 3 -20 -3 -34 -14 -19 -15 -27 -32 -29 -63 -2 -33 -7 -42 -20 -41 -10 1 -18
-2 -18 -7 0 -5 -5 -9 -11 -9 -8 0 -8 4 -2 13 6 6 13 39 16 72 3 33 11 61 17
63 6 2 16 10 23 18 17 19 45 17 57 -5z m-292 -76 c4 -57 -14 -97 -61 -144 -29
-27 -38 -31 -54 -22 -16 9 -16 10 6 11 22 0 23 3 18 42 -8 63 -35 92 -88 96
-39 3 -48 -1 -71 -27 -36 -39 -58 -84 -58 -116 0 -23 -3 -25 -22 -19 -54 17
-128 82 -128 112 0 5 13 7 29 4 31 -4 65 9 175 65 68 36 143 52 216 48 34 -3
35 -4 38 -50z m309 -1 c8 -20 -8 -48 -31 -52 -12 -3 -16 4 -16 32 0 30 4 36
20 36 11 0 23 -7 27 -16z m-445 -68 c4 -6 8 -21 8 -34 0 -23 0 -23 -23 4 -17
19 -29 25 -44 20 -26 -8 -52 -47 -55 -81 -2 -17 -8 -25 -21 -25 -21 0 -17 25
10 70 33 53 52 67 86 62 17 -3 35 -10 39 -16z m-27 -57 c5 -14 0 -28 -16 -45
-29 -31 -39 -30 -39 2 0 55 41 87 55 43z"/>
<path d="M2225 1590 c3 -5 11 -10 16 -10 6 0 7 5 4 10 -3 6 -11 10 -16 10 -6
0 -7 -4 -4 -10z"/>
<path d="M1946 1333 c-6 -14 -5 -15 5 -6 7 7 10 15 7 18 -3 3 -9 -2 -12 -12z"/>
<path d="M724 1216 c-37 -39 -43 -52 -49 -103 -3 -32 -8 -68 -11 -80 -3 -16 0
-23 11 -23 11 0 15 12 15 48 0 75 17 118 60 155 22 19 40 37 40 40 0 18 -28 2
-66 -37z"/>
<path d="M1390 1226 c0 -2 7 -7 16 -10 8 -3 12 -2 9 4 -6 10 -25 14 -25 6z"/>
<path d="M571 1174 c0 -11 3 -14 6 -6 3 7 2 16 -1 19 -3 4 -6 -2 -5 -13z"/>
<path d="M2380 1161 c0 -22 -10 -38 -42 -65 -87 -75 -274 -109 -473 -86 -55 6
-154 15 -220 19 -66 5 -169 18 -230 30 -310 60 -457 78 -463 56 -1 -5 13 -11
30 -11 18 -1 83 -11 143 -22 61 -11 135 -23 165 -26 30 -3 75 -10 100 -15 106
-21 175 -31 345 -48 250 -25 306 -24 504 13 23 5 36 2 42 -7 7 -9 7 -5 3 14
-4 19 -2 27 7 27 17 1 68 46 92 82 19 30 23 68 7 68 -5 0 -10 -13 -10 -29z"/>
<path d="M2375 1070 c-3 -5 -1 -10 4 -10 6 0 11 5 11 10 0 6 -2 10 -4 10 -3 0
-8 -4 -11 -10z"/>
<path d="M1758 1053 c7 -3 16 -2 19 1 4 3 -2 6 -13 5 -11 0 -14 -3 -6 -6z"/>
<path d="M2058 1033 c7 -3 16 -2 19 1 4 3 -2 6 -13 5 -11 0 -14 -3 -6 -6z"/>
<path d="M2315 1031 c-6 -11 9 -23 19 -14 9 9 7 23 -3 23 -6 0 -12 -4 -16 -9z"/>
<path d="M2300 980 c0 -5 5 -10 11 -10 5 0 7 5 4 10 -3 6 -8 10 -11 10 -2 0
-4 -4 -4 -10z"/>
<path d="M2285 950 c-3 -6 -34 -25 -68 -43 -50 -25 -78 -33 -142 -37 -76 -5
-80 -6 -84 -30 -3 -24 -2 -24 16 -8 13 12 35 17 79 16 52 -1 95 12 114 33 3 3
19 11 37 18 34 14 70 47 61 57 -3 3 -9 0 -13 -6z"/>
<path d="M1708 933 c6 -2 18 -2 25 0 6 3 1 5 -13 5 -14 0 -19 -2 -12 -5z"/>
<path d="M1912 816 c-19 -7 -37 -18 -41 -25 -4 -6 -15 -9 -24 -5 -10 3 -17 1
-17 -5 0 -6 -7 -8 -15 -5 -8 4 -23 3 -32 -1 -10 -4 -27 -9 -38 -11 -60 -9 -91
-17 -101 -25 -6 -5 -18 -7 -25 -4 -17 6 -46 -11 -36 -21 3 -4 26 -2 49 4 70
19 112 19 115 2 5 -23 -57 -39 -207 -51 -117 -10 -380 -5 -368 7 2 2 69 6 148
8 172 7 250 15 250 27 0 12 -42 11 -74 -1 -38 -14 -497 -15 -523 -1 -12 6 -32
11 -45 11 -13 0 -29 5 -35 11 -8 8 -17 7 -34 -5 -21 -14 -19 -21 5 -17 4 1 13
-2 20 -7 38 -30 434 -66 627 -58 143 6 214 23 245 57 21 23 94 29 75 5 -9 -10
-8 -16 4 -26 9 -7 18 -10 22 -6 3 3 1 6 -7 6 -10 0 -10 3 1 16 10 13 10 17 -2
25 -8 5 -17 9 -21 10 -5 1 -12 3 -18 4 -5 1 -16 3 -22 4 -9 1 -9 4 2 10 8 6
17 8 20 6 12 -7 160 55 160 68 0 9 -18 7 -58 -7z"/>
<path d="M1870 694 c0 -9 5 -12 11 -8 8 4 9 -1 4 -17 -6 -20 -5 -22 6 -11 19
18 31 15 24 -7 -3 -11 0 -21 8 -24 31 -12 14 38 -19 60 -27 18 -34 19 -34 7z"/>
<path d="M1946 651 c-3 -4 6 -14 19 -21 31 -17 33 -34 3 -24 -23 6 -23 6 2
-22 14 -16 26 -31 27 -32 1 -2 6 6 13 17 9 17 7 26 -7 45 -22 30 -50 48 -57
37z m64 -61 c0 -5 -4 -10 -10 -10 -5 0 -10 5 -10 10 0 6 5 10 10 10 6 0 10 -4
10 -10z"/>
<path d="M2016 554 c-9 -23 -7 -31 3 -15 7 11 11 9 20 -8 7 -11 8 -21 4 -21
-4 0 -352 0 -771 0 -613 0 -763 -2 -760 -12 4 -10 159 -13 761 -13 668 0 758
2 772 15 13 13 13 20 3 43 -15 31 -23 34 -32 11z"/>
</g>
</svg>
